<?xml version="1.0" encoding="UTF-8" standalone="no"?><!DOCTYPE svg PUBLIC "-//W3C//DTD SVG 1.1//EN" "http://www.w3.org/Graphics/SVG/1.1/DTD/svg11.dtd"><svg width="100%" height="100%" viewBox="0 0 300 100" version="1.1" xmlns="http://www.w3.org/2000/svg" xmlns:xlink="http://www.w3.org/1999/xlink" xml:space="preserve" style="fill-rule:evenodd;clip-rule:evenodd;stroke-linejoin:round;stroke-miterlimit:1.41421;"><path id="path53690" d="M225.191,34.952c0,-1.801 -1.465,-3.261 -3.263,-3.261c-1.804,0 -3.268,1.46 -3.268,3.261l0,6.86c0,1.811 1.464,3.272 3.268,3.272c1.798,0 3.263,-1.461 3.263,-3.272l0,-6.86Zm-17.953,-9.003c0,-1.8 -1.461,-3.263 -3.305,-3.263c-1.803,0 -3.264,1.463 -3.264,3.263l0,15.863c0,1.811 1.461,3.272 3.264,3.272c1.844,0 3.305,-1.461 3.305,-3.272l0,-15.863Zm-17.991,-12.317c0,-1.801 -1.46,-3.262 -3.263,-3.262c-1.803,0 -3.264,1.461 -3.264,3.262l0,34.699c0,1.811 1.461,3.271 3.264,3.271c1.803,0 3.263,-1.46 3.263,-3.271l0,-34.699Zm-17.994,12.317c0,-1.8 -1.46,-3.263 -3.263,-3.263c-1.799,0 -3.264,1.463 -3.264,3.263l0,15.863c0,1.811 1.465,3.272 3.264,3.272c1.803,0 3.263,-1.461 3.263,-3.272l0,-15.863Zm-17.99,9.003c0,-1.801 -1.46,-3.261 -3.253,-3.261c-1.803,0 -3.273,1.46 -3.273,3.261l0,6.86c0,1.811 1.47,3.272 3.273,3.272c1.793,0 3.253,-1.461 3.253,-3.272l0,-6.86Zm-17.961,-9.003c0,-1.8 -1.471,-3.263 -3.273,-3.263c-1.803,0 -3.275,1.463 -3.275,3.263l0,15.863c0,1.811 1.472,3.272 3.275,3.272c1.802,0 3.273,-1.461 3.273,-3.272l0,-15.863Zm-17.981,-12.317c0,-1.801 -1.472,-3.262 -3.275,-3.262c-1.802,0 -3.273,1.461 -3.273,3.262l0,34.699c0,1.811 1.471,3.271 3.273,3.271c1.803,0 3.275,-1.46 3.275,-3.271l0,-34.699Zm-17.983,12.317c0,-1.8 -1.47,-3.263 -3.273,-3.263c-1.804,0 -3.274,1.463 -3.274,3.263l0,15.863c0,1.811 1.47,3.272 3.274,3.272c1.803,0 3.273,-1.461 3.273,-3.272l0,-15.863Zm-17.982,9.003c0,-1.801 -1.47,-3.261 -3.273,-3.261c-1.801,0 -3.274,1.46 -3.274,3.261l0,6.86c0,1.811 1.473,3.272 3.274,3.272c1.803,0 3.273,-1.461 3.273,-3.272l0,-6.86Zm67.586,28.444c-0.197,-0.053 -3.217,-0.833 -6.428,-0.833c-6.078,0 -9.737,3.282 -9.737,8.17c0,4.326 3.061,6.484 6.735,7.644c0.408,0.135 1.008,0.323 1.407,0.455c1.636,0.514 2.941,1.279 2.941,2.603c0,1.481 -1.509,2.439 -4.788,2.439c-2.883,0 -5.646,-0.824 -6.228,-0.971l0,6.013c0.324,0.069 3.608,0.714 7.117,0.714c5.046,0 10.818,-2.205 10.818,-8.769c0,-3.184 -1.949,-6.115 -6.229,-7.475l-1.819,-0.579c-1.086,-0.343 -3.023,-0.898 -3.023,-2.488c0,-1.257 1.436,-2.142 4.079,-2.142c2.281,0 5.057,0.767 5.155,0.797l0,-5.578Zm55.725,12.701c0,3.802 -2.912,6.878 -6.82,6.878c-3.912,0 -6.817,-3.076 -6.817,-6.878c0,-3.794 2.905,-6.871 6.817,-6.871c3.908,0 6.82,3.077 6.82,6.871m-6.82,-13.525c-8.037,0 -13.801,6.062 -13.801,13.525c0,7.475 5.764,13.533 13.801,13.533c8.036,0 13.809,-6.058 13.809,-13.533c0,-7.463 -5.773,-13.525 -13.809,-13.525m-89.571,0.936c-0.62,-0.184 -2.91,-0.936 -6.012,-0.936c-8.025,0 -13.916,5.721 -13.916,13.525c0,8.419 6.503,13.533 13.916,13.533c2.945,0 5.193,-0.698 6.012,-0.93l0,-7.014c-0.283,0.157 -2.439,1.386 -5.54,1.386c-4.393,0 -7.226,-3.091 -7.226,-6.975c0,-4.002 2.956,-6.97 7.226,-6.97c3.154,0 5.275,1.257 5.54,1.396l0,-7.015Zm68.827,0c-0.624,-0.184 -2.917,-0.936 -6.009,-0.936c-8.036,0 -13.927,5.721 -13.927,13.525c0,8.419 6.511,13.533 13.927,13.533c2.929,0 5.181,-0.698 6.009,-0.93l0,-7.014c-0.289,0.157 -2.447,1.386 -5.548,1.386c-4.389,0 -7.22,-3.091 -7.22,-6.975c0,-4.002 2.957,-6.97 7.22,-6.97c3.154,0 5.279,1.257 5.548,1.396l0,-7.015Zm-53.168,25.657l-6.595,0l0,-26.13l6.595,0l0,26.13Z" style="fill:#049fd9;fill-rule:nonzero;"/></svg>