<?xml version="1.0" encoding="UTF-8" standalone="no"?>
<svg
   xmlns:dc="http://purl.org/dc/elements/1.1/"
   xmlns:cc="http://creativecommons.org/ns#"
   xmlns:rdf="http://www.w3.org/1999/02/22-rdf-syntax-ns#"
   xmlns:svg="http://www.w3.org/2000/svg"
   xmlns="http://www.w3.org/2000/svg"
   xmlns:sodipodi="http://sodipodi.sourceforge.net/DTD/sodipodi-0.dtd"
   xmlns:inkscape="http://www.inkscape.org/namespaces/inkscape"
   width="300"
   height="100.00001"
   viewBox="16.548 15.478 55.66152 18.557545"
   version="1.1"
   id="svg8"
   sodipodi:docname="alianza-dell2.svg"
   inkscape:version="0.92.2 (5c3e80d, 2017-08-06)">
  <metadata
     id="metadata14">
    <rdf:RDF>
      <cc:Work
         rdf:about="">
        <dc:format>image/svg+xml</dc:format>
        <dc:type
           rdf:resource="http://purl.org/dc/dcmitype/StillImage" />
        <dc:title></dc:title>
      </cc:Work>
    </rdf:RDF>
  </metadata>
  <defs
     id="defs12" />
  <sodipodi:namedview
     pagecolor="#ffffff"
     bordercolor="#666666"
     borderopacity="1"
     objecttolerance="10"
     gridtolerance="10"
     guidetolerance="10"
     inkscape:pageopacity="0"
     inkscape:pageshadow="2"
     inkscape:window-width="1680"
     inkscape:window-height="991"
     id="namedview10"
     showgrid="false"
     inkscape:zoom="3.0304976"
     inkscape:cx="162.45812"
     inkscape:cy="91.027808"
     inkscape:window-x="1358"
     inkscape:window-y="-8"
     inkscape:window-maximized="1"
     inkscape:current-layer="svg8" />
  <g
     id="g6"
     style="fill:#0083ca"
     transform="matrix(0.13860211,0,0,0.13860211,9.4418805,-8.6333767)">
    <path
       d="m 227.135,186.637 c 7.348,4.866 14.864,9.565 21.801,14.843 -15.671,9.84 -31.034,19.989 -46.616,29.918 2.366,1.809 5.056,3.293 7.421,5.102 15.712,-9.954 31.429,-19.902 47.081,-29.918 7.02,4.345 13.931,8.798 20.41,13.684 -15.684,9.906 -30.842,20.336 -46.385,30.381 2.303,1.873 5.126,3.224 7.652,4.871 16.065,-9.833 31.73,-20.066 47.544,-30.149 v -32.934 h 34.789 v 65.635 c 9.817,0.54 20.642,0.077 30.847,0.23 v 30.847 h -65.636 v -31.311 c -19.284,11.716 -39.046,24.965 -58.444,37.34 -20.201,-13.117 -39.67,-26.97 -59.836,-40.122 -5.842,18.517 -19.717,32.447 -42.675,34.093 -14.318,1.024 -30.588,-0.765 -47.08,0 v -96.712 c 20.618,1.366 43.258,-2.757 59.604,2.319 14.453,4.489 24.7,16.021 29.454,30.382 20.181,-12.675 40.038,-25.672 60.069,-38.499 z m -115.963,36.876 v 34.788 c 8.287,0.041 14.59,0.522 19.481,-3.246 7.277,-5.605 8.743,-19.5 2.319,-26.904 -4.287,-4.94 -11.525,-5.977 -21.569,-5.334 -0.268,0.039 -0.251,0.367 -0.231,0.696 z m 249.55,-31.078 h 34.788 v 65.866 h 30.614 v 30.847 h -65.636 v -96.017 c -0.018,-0.329 -0.037,-0.657 0.234,-0.696 z"
       id="path4"
       inkscape:connector-curvature="0" />
  </g>
</svg>
