<?xml version="1.0" encoding="UTF-8" standalone="no"?><!DOCTYPE svg PUBLIC "-//W3C//DTD SVG 1.1//EN" "http://www.w3.org/Graphics/SVG/1.1/DTD/svg11.dtd"><svg width="100%" height="100%" viewBox="0 0 300 100" version="1.1" xmlns="http://www.w3.org/2000/svg" xmlns:xlink="http://www.w3.org/1999/xlink" xml:space="preserve" style="fill-rule:evenodd;clip-rule:evenodd;stroke-linejoin:round;stroke-miterlimit:1.41421;"><g id="g23944"><path id="path13607" d="M127.562,33.65c-5.01,0 -10.707,2.323 -14.189,6.972l0.003,-0.009l-0.003,0.002l0.003,-6.235l-11.949,0l0,43.513l11.946,0l0,-24.759c0,-4.457 3.456,-9.193 9.853,-9.193c4.944,0 10.059,3.439 10.059,9.193l0,24.759l11.949,0l0,-26.973c0,-10.008 -7.16,-17.27 -17.672,-17.27" style="fill:#e60012;fill-rule:nonzero;"/><path id="path13611" d="M230.156,34.382l-10.802,29.64l-10.801,-29.64l-13.65,0l17.903,43.499l13.094,0l17.903,-43.499l-13.647,0Z" style="fill:#e60012;fill-rule:nonzero;"/><path id="path13615" d="M65.756,47.49c2.035,-2.732 5.276,-4.336 9.191,-4.336c4.305,0 7.572,2.459 9.261,6.089l-20.876,8.661c-0.57,-4.445 0.568,-7.922 2.424,-10.414m22.955,17.025c-5.028,3.721 -7.902,4.609 -12.488,4.609c-4.126,0 -7.358,-1.281 -9.636,-3.528l30.547,-12.672c-0.666,-4.722 -2.459,-8.941 -5.217,-12.149c-4.014,-4.661 -9.954,-7.127 -17.187,-7.127c-13.138,0 -23.045,9.692 -23.045,22.494c0,13.133 9.93,22.491 24.362,22.491c8.086,0 16.353,-3.832 20.22,-8.31l-7.556,-5.808Z" style="fill:#e60012;fill-rule:nonzero;"/><path id="path13619" d="M50.546,66.922l-27.157,0l0,-45.555l-12.111,0l0,56.526l39.268,0l0,-10.971Z" style="fill:#e60012;fill-rule:nonzero;"/><path id="path13623" d="M265.258,43.887c-6.673,0 -11.518,5.057 -11.518,12.25c0,6.868 5.133,12.25 11.678,12.25c6.675,0 11.518,-5.195 11.518,-12.25c0,-6.868 -5.13,-12.25 -11.678,-12.25m0,34.739c-13.067,0 -23.306,-9.735 -23.306,-22.489c0,-12.61 10.309,-22.489 23.466,-22.489c13.068,0 23.304,9.735 23.304,22.489c0,12.608 -10.307,22.489 -23.464,22.489" style="fill:#e60012;fill-rule:nonzero;"/><path id="path13627" d="M173.265,43.887c-6.673,0 -11.515,5.057 -11.515,12.25c0,6.868 5.13,12.25 11.678,12.25c6.672,0 11.515,-5.195 11.515,-12.25c0,-6.868 -5.13,-12.25 -11.678,-12.25m0,34.739c-13.067,0 -23.304,-9.735 -23.304,-22.489c0,-12.61 10.307,-22.489 23.467,-22.489c13.065,0 23.303,9.735 23.303,22.489c0,12.608 -10.309,22.489 -23.466,22.489" style="fill:#e60012;fill-rule:nonzero;"/></g></svg>