<?xml version="1.0" encoding="UTF-8" standalone="no"?><!DOCTYPE svg PUBLIC "-//W3C//DTD SVG 1.1//EN" "http://www.w3.org/Graphics/SVG/1.1/DTD/svg11.dtd"><svg width="100%" height="100%" viewBox="0 0 834 417" version="1.1" xmlns="http://www.w3.org/2000/svg" xmlns:xlink="http://www.w3.org/1999/xlink" xml:space="preserve" style="fill-rule:evenodd;clip-rule:evenodd;stroke-linejoin:round;stroke-miterlimit:1.41421;"><path id="XMLID_23_" d="M752.215,144.482c43.155,29.944 25.101,99.08 -20.696,106.566c58.567,0 77.942,-80.145 20.696,-106.566Z" style="fill:#ffce26;fill-rule:nonzero;"/><path id="XMLID_22_" d="M706.419,144.042c51.081,-7.486 72.218,55.484 49.76,84.548c36.989,-36.99 7.486,-103.043 -49.76,-84.548Z" style="fill:#0879b8;fill-rule:nonzero;"/><path id="XMLID_21_" d="M676.475,174.426c25.1,-37.43 77.502,-14.531 82.786,23.339c6.165,-46.237 -55.484,-72.218 -82.786,-23.339Z" style="fill:#069b4f;fill-rule:nonzero;"/><path id="XMLID_20_" d="M675.154,202.609c6.165,-38.751 56.365,-42.714 74.86,-15.413c-14.972,-38.751 -73.98,-33.907 -74.86,15.413Z" style="fill:#cb2034;fill-rule:nonzero;"/><path id="XMLID_25_" d="M48.972,251.048l13.211,0l3.082,-40.073l0,-11.449c0,0 0,0.441 0.44,1.321c0.441,0.881 0.441,1.762 0.881,2.642c0.441,1.322 0.881,2.643 1.321,3.523c0.441,1.321 0.881,2.642 1.321,3.523l11.449,27.742l11.45,0l11.449,-27.742c0.44,-1.321 0.881,-2.202 1.321,-3.523c0.44,-1.321 0.881,-2.642 1.321,-3.523c0.44,-0.88 0.881,-2.201 0.881,-2.642c0,-0.88 0.44,-1.321 0.44,-1.321l0,11.449l3.082,40.073l12.771,0l-5.725,-71.778l-13.651,0l-14.091,35.228c-0.44,1.321 -0.881,2.202 -1.321,3.523c-0.441,1.321 -0.881,2.202 -1.321,3.523c-0.441,1.321 -0.441,1.761 -0.881,2.642c0,0.881 -0.44,0.881 -0.44,1.321c0,0 0,-0.44 -0.441,-1.321c0,-0.881 -0.44,-1.321 -0.88,-2.642c-0.441,-1.321 -0.881,-2.202 -1.321,-3.523c-0.441,-1.321 -0.881,-2.202 -1.321,-3.523l-14.092,-35.228l-13.21,0l-5.725,71.778Zm84.107,-14.972c0,2.642 0.441,4.843 1.322,6.605c0.88,2.202 2.201,3.523 3.963,5.284c1.761,1.321 3.523,2.642 5.284,3.083c2.202,0.88 4.403,1.321 6.605,1.321c2.202,0 4.404,-0.441 6.165,-0.881c1.762,-0.44 3.083,-1.321 4.404,-2.202c1.321,-0.881 2.201,-1.761 3.082,-2.642c0.881,-0.881 1.321,-1.761 1.762,-2.202c0.44,-0.44 0.44,-0.88 0.44,-0.88l0,7.926l11.889,0l0,-32.146c0,-4.403 -0.88,-7.926 -2.642,-11.009c-1.761,-3.082 -3.963,-5.284 -7.486,-7.045c-3.082,-1.321 -7.045,-2.642 -11.449,-2.642c-2.642,0 -4.844,0 -6.605,0.44c-2.202,0.44 -3.963,0.881 -5.725,1.321c-1.761,0.44 -3.082,1.321 -3.963,1.761c-1.321,0.441 -2.202,1.321 -2.642,1.321c-0.44,0.441 -0.881,0.441 -0.881,0.441l4.844,9.247c0,0 0.441,-0.44 1.321,-0.88c0.881,-0.441 1.762,-1.322 3.083,-1.762c1.321,-0.44 2.642,-1.321 4.403,-1.761c1.762,-0.441 3.523,-0.881 5.284,-0.881c1.762,0 3.523,0 5.285,0.881c1.321,0.44 2.642,1.321 3.523,2.642c0.88,1.321 1.321,3.082 1.321,5.284l0,0.881l-1.762,0c-1.321,0 -3.082,0 -5.284,0c-2.202,0 -3.963,0.44 -6.605,0.88c-2.642,0.441 -4.404,0.881 -6.606,1.762c-2.201,0.881 -3.963,1.761 -6.165,3.082c-1.761,1.321 -3.082,2.642 -4.403,4.844c-0.881,3.083 -1.321,5.284 -1.762,7.927Zm13.211,-0.441c0,-1.321 0.44,-2.642 1.321,-3.523c0.881,-0.88 1.762,-1.761 3.083,-2.201c1.321,-0.441 2.642,-1.321 3.963,-1.321c1.321,-0.441 3.082,-0.441 4.403,-0.441l6.606,0l0,1.321c0,1.321 -0.441,3.083 -0.881,4.844c-0.44,1.762 -1.321,3.083 -2.642,4.404c-1.321,1.321 -2.202,2.642 -3.963,3.082c-1.321,0.881 -3.083,1.321 -4.844,1.321c-1.762,0 -3.083,-0.44 -4.404,-0.881c-1.321,-0.44 -2.202,-1.321 -2.642,-2.642c0,-1.761 0,-3.082 0,-3.963Zm44.916,15.413l12.77,0l0,-23.339c0,-1.321 0,-2.642 0,-3.523c0,-1.321 0.441,-2.202 0.881,-3.523c0.44,-2.202 1.761,-3.963 2.642,-5.284c1.321,-1.321 2.642,-2.642 4.844,-3.963c2.202,-1.321 3.963,-1.321 6.165,-1.321c2.202,0 3.963,0.44 5.284,1.321c1.321,0.881 2.202,2.202 2.642,3.523c0.441,1.321 0.881,3.522 0.441,5.284l0,30.384l12.77,0l0,-33.026c0,-4.404 -0.881,-8.367 -2.202,-11.009c-1.321,-2.642 -3.523,-5.284 -6.165,-6.605c-2.642,-1.321 -5.724,-2.202 -9.688,-2.202c-2.642,0 -4.843,0.44 -7.045,1.321c-2.202,0.881 -3.963,1.321 -5.284,2.642c-1.322,1.321 -2.643,2.202 -3.964,3.523c-0.88,1.321 -1.761,2.642 -2.201,3.523c0,0 0,-0.441 0,-1.321c0,-0.881 0,-1.321 0,-2.642l0,-6.165l-12.33,0l0.44,52.402Zm57.686,-14.972c0,2.642 0.441,4.843 1.321,6.605c0.881,2.202 2.202,3.523 3.963,5.284c1.762,1.321 3.523,2.642 5.285,3.083c2.201,0.88 4.403,1.321 6.605,1.321c2.202,0 4.404,-0.441 6.165,-0.881c1.761,-0.44 3.082,-1.321 4.403,-2.202c1.322,-0.881 2.202,-1.761 3.083,-2.642c0.881,-0.881 1.321,-1.761 1.761,-2.202c0.441,-0.44 0.441,-0.88 0.441,-0.88l0,7.926l11.889,0l0,-32.146c0,-4.403 -0.88,-7.926 -2.642,-11.009c-1.761,-3.082 -3.963,-5.284 -7.486,-7.045c-3.082,-1.321 -7.046,-2.642 -11.449,-2.642c-2.642,0 -4.844,0 -6.605,0.44c-2.202,0.44 -3.964,0.881 -5.725,1.321c-1.761,0.44 -3.082,1.321 -3.963,1.761c-1.321,0.441 -2.202,1.321 -2.642,1.321c-0.441,0.441 -0.881,0.441 -0.881,0.441l4.844,9.247c0,0 0.44,-0.44 1.321,-0.88c0.881,-0.441 1.761,-1.322 3.082,-1.762c1.322,-0.44 2.643,-1.321 4.404,-1.761c1.761,-0.441 3.523,-0.881 5.284,-0.881c1.762,0 3.523,0 5.284,0.881c1.322,0.44 2.643,1.321 3.523,2.642c0.881,1.321 1.321,3.082 1.321,5.284l0,0.881l-1.761,0c-1.321,0 -3.083,0 -5.284,0c-2.202,0 -3.963,0.44 -6.606,0.88c-2.201,0.441 -4.403,0.881 -6.605,1.762c-2.202,0.881 -3.963,1.761 -6.165,3.082c-1.761,1.321 -3.082,2.642 -4.403,4.844c-1.321,3.083 -1.762,5.284 -1.762,7.927Zm12.77,-0.441c0,-1.321 0.441,-2.642 1.322,-3.523c0.88,-0.88 1.761,-1.761 3.082,-2.201c1.321,-0.441 2.642,-1.321 3.963,-1.321c1.321,-0.441 3.083,-0.441 4.404,-0.441l6.605,0l0,1.321c0,1.321 -0.44,3.083 -0.881,4.844c-0.44,1.321 -1.321,3.083 -2.642,4.404c-1.321,1.321 -2.202,2.642 -3.963,3.082c-1.321,0.881 -3.082,1.321 -4.844,1.321c-1.761,0 -3.082,-0.44 -4.403,-0.881c-1.321,-0.44 -2.202,-1.321 -2.643,-2.642c0.441,-1.761 0,-3.082 0,-3.963Zm50.641,22.018l-3.963,10.128c1.761,0.881 3.523,1.761 5.284,2.202c2.202,0.44 3.963,1.321 6.165,1.321c2.202,0.44 4.404,0.44 6.605,0.44c2.642,0 5.285,0 7.927,-0.881c2.642,-0.44 5.284,-1.321 7.486,-2.642c2.201,-1.321 4.403,-2.642 6.165,-4.844c1.761,-1.761 3.082,-3.963 3.963,-6.605c0.881,-2.642 1.321,-5.724 1.321,-9.247l0,-47.999l-11.89,0l0,5.285l-0.44,0l-0.44,-0.881c-0.441,-0.441 -0.881,-0.881 -1.762,-1.762c-0.88,-0.44 -1.761,-1.321 -2.642,-1.761c-1.321,-0.44 -2.642,-1.321 -4.403,-1.761c-1.762,-0.441 -3.523,-0.881 -5.725,-0.881c-3.963,0 -7.046,0.881 -9.688,2.202c-2.642,1.321 -5.284,3.082 -7.045,5.284c-1.762,2.202 -3.523,5.284 -4.404,7.926c-0.881,3.083 -1.321,6.606 -1.321,10.128c0,3.523 0.44,7.046 1.321,10.128c0.881,3.083 2.642,5.725 4.404,8.367c1.761,2.642 4.403,4.404 7.045,5.725c2.642,1.321 6.165,2.201 9.688,2.201c3.523,0 6.165,-0.44 8.807,-1.761c2.202,-1.321 3.963,-2.642 5.725,-5.284l0,6.165c0,2.202 -0.441,3.963 -1.321,5.724c-0.881,1.321 -1.762,2.642 -3.083,3.964c-1.321,0.88 -2.642,1.761 -4.403,2.201c-1.762,0.441 -3.523,0.441 -5.725,0.441c-1.761,0 -3.963,0 -5.284,-0.441c-1.762,-0.44 -3.083,-0.88 -4.404,-1.321c-1.321,-0.44 -2.202,-0.88 -3.082,-1.321c-0.881,0 -0.881,-0.44 -0.881,-0.44Zm17.174,-18.495c-2.642,0 -5.284,-0.881 -7.046,-2.202c-1.761,-1.321 -3.523,-3.082 -4.403,-5.284c-0.881,-2.202 -1.321,-5.284 -1.321,-7.926c0,-2.642 0.44,-5.285 1.321,-7.486c0.88,-2.202 2.201,-3.963 3.963,-4.844c1.761,-1.321 3.963,-1.762 6.605,-1.762c1.762,0 3.523,0 4.844,0.881c1.321,0.44 2.642,1.321 3.963,2.202c1.321,1.321 2.202,2.642 2.642,4.403c0.441,1.762 0.881,4.404 0.881,7.046c0,2.642 -0.44,5.284 -0.881,7.046c-0.44,1.761 -1.321,3.523 -2.642,4.844c-1.321,1.321 -2.642,2.201 -3.963,2.642c-1.321,0 -2.642,0.44 -3.963,0.44Zm34.788,-13.651c0,3.963 0.44,7.046 1.761,10.569c1.321,3.082 3.083,6.164 5.284,8.366c2.642,2.642 5.285,4.404 8.807,5.725c3.523,1.321 7.046,2.202 11.45,2.202c2.642,0 4.843,0 7.045,-0.881c2.202,-0.44 3.963,-1.321 5.725,-1.762c1.761,-0.88 3.082,-1.321 4.403,-2.201c1.321,-0.881 2.202,-1.321 2.642,-1.762c0.441,-0.44 0.881,-0.88 0.881,-0.88l-4.844,-9.248l-0.88,0.441c-0.441,0.44 -1.322,0.88 -2.202,1.321c-0.881,0.44 -1.762,1.321 -3.083,1.761c-1.321,0.44 -2.642,0.881 -3.963,1.321c-1.321,0.44 -3.082,0.44 -4.844,0.44c-1.761,0 -3.963,-0.44 -5.284,-0.88c-1.761,-0.441 -3.523,-1.321 -4.844,-2.642c-1.321,-1.321 -2.642,-2.642 -3.523,-4.404c-0.88,-1.761 -1.321,-3.963 -1.761,-5.724l35.228,0l0,-0.441l0,-4.403c0,-3.523 -0.44,-6.606 -1.321,-9.688c-0.881,-3.083 -2.642,-5.284 -4.403,-7.926c-1.762,-2.202 -4.404,-3.964 -7.046,-5.285c-2.642,-1.321 -6.165,-1.761 -9.688,-1.761c-3.963,0 -7.486,0.881 -10.568,2.202c-3.083,1.321 -5.725,3.082 -8.367,5.284c-2.202,2.642 -3.963,5.284 -5.284,8.367c-0.881,3.963 -1.321,7.486 -1.321,11.889Zm13.21,-6.605c0.441,-2.202 1.321,-3.963 2.202,-5.725c1.321,-1.321 2.642,-2.642 3.963,-3.523c1.762,-0.88 3.523,-1.321 5.725,-1.321c1.761,0 3.523,0.441 5.284,1.321c1.321,0.881 2.642,2.202 3.523,3.523c0.881,1.321 1.321,3.523 1.321,5.725l-22.018,0Zm48.439,32.146l43.155,0l0,-8.808l-33.027,0l0,-22.898l25.541,0l0,-8.807l-25.541,0l0,-22.018l31.265,0l0,-8.807l-41.393,0l0,71.338Zm55.925,0l9.688,0l0,-23.779c0,-1.322 0,-2.643 0,-3.523c0,-1.321 0.44,-2.202 0.44,-3.083c0.881,-2.642 1.761,-4.844 3.523,-6.605c1.321,-1.761 3.523,-3.523 5.724,-4.404c2.202,-1.321 4.404,-1.321 7.046,-1.321c2.202,0 3.963,0.441 4.844,0.881c1.321,0.44 2.202,1.321 3.082,2.642c0.881,1.321 1.321,2.642 1.321,3.963c0,1.321 0.441,3.083 0.441,5.285l0,30.384l9.688,0l0,-32.586c0,-6.605 -1.321,-11.449 -4.404,-14.532c-2.642,-3.082 -7.486,-4.844 -13.211,-4.844c-2.642,0 -5.284,0.441 -7.486,1.321c-2.201,0.881 -3.963,1.762 -5.724,3.083c-1.321,1.321 -2.642,2.642 -3.963,3.963c-0.881,1.321 -1.762,2.642 -2.202,3.963l0,-0.44l0,-3.083l0,-6.605l-9.247,0l0.44,49.32Zm65.172,9.247l-3.082,7.926c1.761,0.881 3.522,1.321 5.284,2.202c1.761,0.44 3.963,1.321 6.165,1.321c2.202,0.44 3.963,0.44 6.165,0.44c2.642,0 5.284,0 7.486,-0.88c2.642,-0.441 4.844,-1.321 7.045,-2.642c2.202,-1.321 3.964,-2.642 5.725,-4.404c1.761,-1.761 3.082,-3.963 3.963,-6.605c0.881,-2.642 1.321,-5.284 1.321,-8.807l0,-48.439l-9.247,0l0,6.605c0,0 0,-0.44 -0.441,-0.88c-0.44,-0.441 -0.88,-1.321 -1.761,-1.762c-0.881,-0.881 -1.761,-1.321 -3.082,-2.202c-1.322,-0.88 -2.643,-1.321 -4.404,-1.761c-1.761,-0.44 -3.963,-0.881 -6.605,-0.881c-3.523,0 -6.606,0.441 -9.248,1.762c-2.642,1.321 -5.284,3.082 -7.045,5.284c-1.762,2.202 -3.523,4.844 -4.404,7.926c-0.881,3.083 -1.321,6.606 -1.321,10.128c0,3.964 0.44,7.046 1.321,10.569c0.881,3.082 2.642,5.724 4.404,8.367c1.761,2.642 4.403,3.963 7.045,5.284c2.642,1.321 6.165,2.202 9.688,2.202c3.523,0 6.605,-0.881 9.247,-2.202c2.643,-1.321 4.404,-3.523 5.725,-5.725l0,7.046c0,2.642 -0.44,4.844 -1.321,6.605c-0.881,1.762 -2.202,3.083 -3.523,4.404c-1.321,1.321 -3.082,1.761 -5.284,2.642c-2.202,0.88 -3.963,0.88 -6.165,0.88c-1.761,0 -3.963,0 -5.284,-0.44c-1.762,-0.44 -3.083,-0.881 -4.404,-1.321c-1.321,-0.44 -2.201,-0.881 -3.082,-1.321c-0.441,-1.321 -0.881,-1.321 -0.881,-1.321Zm16.733,-18.495c-3.082,0 -5.724,-0.881 -7.926,-2.202c-2.202,-1.321 -3.963,-3.522 -5.284,-6.165c-1.321,-2.642 -1.761,-5.724 -1.761,-9.247c0,-3.523 0.44,-6.605 1.761,-9.247c1.321,-2.642 2.642,-4.404 4.844,-5.725c2.202,-1.321 4.403,-2.202 7.486,-2.202c2.202,0 3.963,0 5.724,0.881c1.762,0.44 3.083,1.321 4.404,2.642c1.321,1.321 2.202,3.083 3.082,5.284c0.881,2.202 1.321,4.844 1.321,8.367c0,3.523 -0.44,6.165 -1.321,8.367c-0.88,2.202 -1.761,3.963 -3.082,5.284c-1.321,1.321 -2.642,2.202 -4.404,2.642c-1.321,0.881 -3.082,1.321 -4.844,1.321Zm38.311,-51.961l9.688,0l0,-10.129l-9.688,0l0,10.129Zm0,61.209l9.688,0l0,-51.081l-9.688,0l0,51.081Zm25.1,0l9.688,0l0,-23.779c0,-1.322 0,-2.643 0,-3.523c0,-1.321 0.44,-2.202 0.44,-3.083c0.881,-2.642 1.762,-4.844 3.523,-6.605c1.321,-1.761 3.523,-3.523 5.725,-4.404c2.202,-1.321 4.403,-1.321 7.045,-1.321c2.202,0 3.964,0.441 4.844,0.881c1.321,0.44 2.202,1.321 3.083,2.642c0.881,1.321 1.321,2.642 1.321,3.963c0,1.321 0.44,3.083 0.44,5.285l0,30.384l9.688,0l0,-32.586c0,-6.605 -1.321,-11.449 -4.404,-14.532c-2.642,-3.082 -7.486,-4.844 -13.21,-4.844c-2.642,0 -5.284,0.441 -7.486,1.321c-2.202,0.881 -3.963,1.762 -5.725,3.083c-1.321,1.321 -2.642,2.642 -3.963,3.963c-0.881,1.321 -1.761,2.642 -2.202,3.963l0,-0.44l0,-3.083l0,-6.605l-9.247,0l0.44,49.32Zm57.246,-25.541c0,3.963 0.881,7.486 1.762,10.569c1.321,3.082 3.082,6.164 5.284,8.366c2.642,2.642 5.284,4.404 8.367,5.725c3.522,1.321 7.045,2.202 11.008,2.202c2.642,0 4.844,0 6.606,-0.881c2.201,-0.44 3.963,-1.321 5.284,-1.762c1.321,-0.88 3.082,-1.321 3.963,-2.201c1.321,-0.881 2.202,-1.321 2.642,-1.762c0.44,-0.44 0.881,-0.88 0.881,-0.88l-3.963,-7.046l-0.881,0.44c-0.881,0.441 -1.321,0.881 -2.202,1.321c-0.881,0.441 -1.761,1.321 -3.082,1.762c-1.321,0.44 -2.642,1.321 -3.963,1.321c-1.321,0.44 -3.083,0.44 -4.844,0.44c-2.202,0 -4.404,-0.44 -6.606,-1.321c-2.201,-0.881 -3.963,-1.761 -5.284,-3.082c-1.761,-1.321 -2.642,-3.083 -3.963,-5.285c-0.881,-2.201 -1.321,-4.403 -1.761,-7.486l36.989,0c0,0 0,-0.44 0,-0.88l0,-3.523c0,-3.523 -0.44,-6.605 -1.321,-9.247c-0.881,-2.643 -2.202,-5.285 -3.963,-7.486c-1.761,-2.202 -3.963,-3.964 -7.046,-5.285c-2.642,-1.321 -5.724,-1.761 -9.687,-1.761c-3.523,0 -7.046,0.44 -10.129,1.761c-3.082,1.321 -5.724,3.083 -7.926,5.285c-2.202,2.201 -3.963,5.284 -5.284,8.366c-0.44,4.404 -0.881,8.367 -0.881,12.33Zm10.569,-6.165c0.44,-2.642 1.321,-5.284 2.642,-7.045c1.321,-1.762 3.082,-3.523 5.284,-4.404c2.202,-0.881 4.404,-1.321 6.605,-1.321c2.202,0 3.963,0.44 6.165,1.321c1.762,0.881 3.083,2.642 4.404,4.404c1.321,1.761 1.761,4.403 1.761,7.486l-26.861,-0.441Z" style="fill:#010101;fill-rule:nonzero;"/></svg>