<?xml version="1.0" encoding="UTF-8" standalone="no"?><!DOCTYPE svg PUBLIC "-//W3C//DTD SVG 1.1//EN" "http://www.w3.org/Graphics/SVG/1.1/DTD/svg11.dtd"><svg width="100%" height="100%" viewBox="0 0 300 100" version="1.1" xmlns="http://www.w3.org/2000/svg" xmlns:xlink="http://www.w3.org/1999/xlink" xml:space="preserve" style="fill-rule:evenodd;clip-rule:evenodd;stroke-linejoin:round;stroke-miterlimit:1.41421;"><g><g><path d="M107.986,54.28l-1.657,4.693l-0.138,0c-0.276,-1.058 -0.782,-2.669 -1.61,-4.601l-8.882,-22.319l-8.697,0l0,35.572l5.752,0l0,-21.951c0,-1.38 0,-2.945 -0.046,-4.878c-0.046,-0.966 -0.138,-1.702 -0.184,-2.254l0.138,0c0.276,1.38 0.598,2.393 0.828,3.037l10.677,25.954l4.049,0l10.584,-26.184c0.23,-0.599 0.46,-1.795 0.69,-2.807l0.138,0c-0.138,2.623 -0.23,4.97 -0.276,6.396l0,22.549l6.121,0l0,-35.526l-8.376,0l-9.111,22.319l0,0Zm23.285,-12.287l5.982,0l0,25.494l-5.982,0l0,-25.494Zm3.037,-10.768c-1.012,0 -1.841,0.368 -2.531,1.012c-0.69,0.644 -1.058,1.473 -1.058,2.485c0,0.967 0.368,1.795 1.058,2.439c0.69,0.644 1.519,0.966 2.531,0.966c1.012,0 1.887,-0.368 2.531,-0.966c0.69,-0.644 1.058,-1.472 1.058,-2.439c0,-0.966 -0.368,-1.795 -1.058,-2.485c-0.598,-0.644 -1.473,-1.012 -2.531,-1.012m24.159,10.538c-1.104,-0.23 -2.255,-0.368 -3.359,-0.368c-2.715,0 -5.2,0.598 -7.271,1.794c-2.071,1.197 -3.727,2.853 -4.786,4.924c-1.104,2.117 -1.656,4.556 -1.656,7.363c0,2.439 0.552,4.602 1.61,6.581c1.059,1.932 2.531,3.497 4.51,4.555c1.887,1.059 4.096,1.611 6.581,1.611c2.853,0 5.292,-0.598 7.224,-1.703l0.046,-0.046l0,-5.522l-0.23,0.184c-0.874,0.644 -1.886,1.197 -2.899,1.519c-1.058,0.368 -2.025,0.552 -2.853,0.552c-2.393,0 -4.28,-0.69 -5.614,-2.209c-1.381,-1.472 -2.071,-3.497 -2.071,-6.028c0,-2.623 0.69,-4.694 2.117,-6.212c1.426,-1.519 3.313,-2.301 5.614,-2.301c1.933,0 3.912,0.644 5.706,1.932l0.23,0.184l0,-5.844l-0.046,-0.046c-0.782,-0.322 -1.656,-0.69 -2.853,-0.92m19.742,-0.184c-1.473,0 -2.853,0.46 -4.05,1.426c-1.012,0.829 -1.702,2.025 -2.301,3.452l-0.046,0l0,-4.464l-5.982,0l0,25.494l5.982,0l0,-13.023c0,-2.209 0.46,-4.05 1.473,-5.384c1.012,-1.381 2.301,-2.071 3.865,-2.071c0.553,0 1.105,0.138 1.795,0.23c0.644,0.184 1.104,0.368 1.427,0.598l0.23,0.184l0,-5.982l-0.138,-0.046c-0.415,-0.276 -1.243,-0.414 -2.255,-0.414m16.29,-0.138c-4.188,0 -7.547,1.242 -9.894,3.681c-2.393,2.439 -3.543,5.798 -3.543,10.032c0,3.957 1.196,7.179 3.497,9.526c2.301,2.3 5.43,3.497 9.342,3.497c4.095,0 7.363,-1.243 9.709,-3.727c2.393,-2.485 3.544,-5.799 3.544,-9.894c0,-4.05 -1.105,-7.271 -3.36,-9.618c-2.162,-2.347 -5.338,-3.497 -9.295,-3.497m4.786,19.603c-1.105,1.427 -2.853,2.117 -5.016,2.117c-2.163,0 -3.912,-0.69 -5.154,-2.209c-1.243,-1.426 -1.841,-3.497 -1.841,-6.12c0,-2.715 0.644,-4.786 1.841,-6.259c1.242,-1.472 2.945,-2.208 5.108,-2.208c2.117,0 3.773,0.69 4.97,2.116c1.196,1.427 1.84,3.498 1.84,6.213c-0.092,2.761 -0.598,4.924 -1.748,6.35m21.214,-8.467c-1.887,-0.782 -3.083,-1.381 -3.636,-1.887c-0.46,-0.46 -0.69,-1.104 -0.69,-1.932c0,-0.691 0.276,-1.381 0.967,-1.841c0.69,-0.46 1.472,-0.69 2.623,-0.69c1.012,0 2.07,0.184 3.083,0.46c1.012,0.276 1.932,0.69 2.669,1.242l0.23,0.184l0,-5.614l-0.138,-0.046c-0.69,-0.276 -1.611,-0.552 -2.715,-0.782c-1.105,-0.184 -2.117,-0.276 -2.945,-0.276c-2.853,0 -5.2,0.69 -7.041,2.209c-1.841,1.426 -2.715,3.359 -2.715,5.614c0,1.196 0.184,2.255 0.598,3.129c0.414,0.874 1.013,1.703 1.841,2.393c0.828,0.644 2.025,1.38 3.681,2.071c1.381,0.598 2.439,1.058 3.083,1.426c0.645,0.368 1.059,0.782 1.381,1.105c0.23,0.368 0.368,0.828 0.368,1.426c0,1.703 -1.288,2.531 -3.911,2.531c-1.013,0 -2.071,-0.184 -3.314,-0.598c-1.242,-0.414 -2.393,-1.013 -3.359,-1.703l-0.23,-0.184l0,5.844l0.138,0.046c0.874,0.415 1.933,0.691 3.221,1.013c1.289,0.23 2.439,0.414 3.452,0.414c3.083,0 5.614,-0.69 7.408,-2.209c1.841,-1.472 2.807,-3.359 2.807,-5.798c0,-1.703 -0.46,-3.221 -1.472,-4.372c-1.335,-1.104 -2.991,-2.255 -5.384,-3.175m22.64,-11.136c-4.187,0 -7.546,1.242 -9.893,3.681c-2.347,2.439 -3.544,5.798 -3.544,10.032c0,3.957 1.197,7.179 3.498,9.526c2.301,2.3 5.43,3.497 9.341,3.497c4.096,0 7.363,-1.243 9.71,-3.727c2.393,-2.485 3.543,-5.799 3.543,-9.894c0,-4.05 -1.104,-7.271 -3.359,-9.618c-2.163,-2.347 -5.338,-3.497 -9.296,-3.497m4.74,19.603c-1.104,1.427 -2.853,2.117 -5.016,2.117c-2.208,0 -3.911,-0.69 -5.154,-2.209c-1.242,-1.426 -1.84,-3.497 -1.84,-6.12c0,-2.715 0.644,-4.786 1.84,-6.259c1.243,-1.472 2.946,-2.208 5.108,-2.208c2.071,0 3.774,0.69 4.97,2.116c1.197,1.427 1.841,3.498 1.841,6.213c0,2.761 -0.598,4.924 -1.749,6.35" style="fill:#737373;fill-rule:nonzero;"/><path d="M287.776,46.917l0,-4.924l-6.028,0l0,-7.547l-0.184,0.046l-5.706,1.703l-0.138,0.046l0,5.752l-9.02,0l0,-3.221c0,-1.473 0.369,-2.623 1.013,-3.36c0.644,-0.736 1.61,-1.104 2.807,-1.104c0.828,0 1.703,0.184 2.669,0.598l0.23,0.138l0,-5.2l-0.138,-0.046c-0.828,-0.276 -1.933,-0.46 -3.359,-0.46c-1.795,0 -3.36,0.414 -4.786,1.105c-1.427,0.782 -2.485,1.84 -3.267,3.267c-0.783,1.38 -1.197,2.945 -1.197,4.74l0,3.543l-4.187,0l0,4.878l4.187,0l0,20.616l6.028,0l0,-20.57l9.02,0l0,13.115c0,5.384 2.531,8.099 7.593,8.099c0.828,0 1.702,-0.138 2.531,-0.276c0.874,-0.184 1.518,-0.414 1.886,-0.598l0.046,-0.046l0,-4.924l-0.23,0.184c-0.368,0.23 -0.69,0.414 -1.242,0.552c-0.46,0.138 -0.874,0.184 -1.197,0.184c-1.196,0 -2.024,-0.276 -2.623,-0.966c-0.552,-0.645 -0.828,-1.703 -0.828,-3.268l0,-12.056l6.12,0Z" style="fill:#737373;fill-rule:nonzero;"/></g><path d="M9.877,20.089l28.208,0l0,28.208l-28.208,0l0,-28.208Z" style="fill:#f25022;fill-rule:nonzero;"/><path d="M41.031,20.089l28.208,0l0,28.208l-28.208,0l0,-28.208Z" style="fill:#7fba00;fill-rule:nonzero;"/><path d="M9.877,51.242l28.208,0l0,28.209l-28.208,0l0,-28.209Z" style="fill:#00a4ef;fill-rule:nonzero;"/><path d="M41.031,51.242l28.208,0l0,28.209l-28.208,0l0,-28.209Z" style="fill:#ffb900;fill-rule:nonzero;"/></g></svg>