<?xml version="1.0" encoding="UTF-8" standalone="no"?><!DOCTYPE svg PUBLIC "-//W3C//DTD SVG 1.1//EN" "http://www.w3.org/Graphics/SVG/1.1/DTD/svg11.dtd"><svg width="100%" height="100%" viewBox="0 0 300 100" version="1.1" xmlns="http://www.w3.org/2000/svg" xmlns:xlink="http://www.w3.org/1999/xlink" xml:space="preserve" style="fill-rule:evenodd;clip-rule:evenodd;stroke-linejoin:round;stroke-miterlimit:1.41421;"><path d="M273.406,28.516c-2.748,-0.697 -5.612,0.581 -6.89,3.097l-16.993,32.168c-0.465,0.929 -1.433,1.509 -2.478,1.471c-1.045,0 -2.013,-0.542 -2.477,-1.471l-16.955,-32.168c-1.587,-2.981 -5.265,-4.142 -8.284,-2.555c-2.013,1.045 -3.29,3.136 -3.29,5.419l0,34.297c-0.078,1.626 1.2,2.981 2.826,3.058c1.625,0.078 2.98,-1.2 3.058,-2.826c0,-0.077 0,-0.154 0,-0.193l0,-34.336c0,-0.116 -0.039,-0.309 0.154,-0.348c0.194,-0.039 0.233,0.155 0.31,0.232l16.955,32.168c2.245,4.258 7.471,5.884 11.729,3.639c1.548,-0.813 2.826,-2.091 3.639,-3.639l17.032,-32.168c0.039,-0.116 0.116,-0.271 0.31,-0.232c0.193,0.039 0.154,0.232 0.154,0.348l0,34.297c-0.038,1.626 1.239,2.981 2.865,3.058c1.626,0.039 2.981,-1.2 3.058,-2.826c0,-0.077 0,-0.154 0,-0.193l0,-34.336c-0.039,-2.825 -1.974,-5.303 -4.723,-5.961Z" style="fill:#1ba638;fill-rule:nonzero;"/><path d="M71.458,28.942c-1.432,-0.736 -3.213,-0.194 -3.948,1.239l-18.581,35.225c-0.348,0.697 -0.89,1.084 -1.432,1.084c-0.542,0 -1.084,-0.387 -1.432,-1.084l-18.581,-35.225c-0.619,-1.51 -2.361,-2.207 -3.871,-1.587c-1.51,0.619 -2.207,2.361 -1.587,3.871c0.077,0.154 0.155,0.309 0.232,0.464l18.581,35.226c1.393,2.632 3.871,4.219 6.658,4.219c2.787,0 5.264,-1.587 6.658,-4.219l18.58,-35.226c0.775,-1.471 0.194,-3.252 -1.277,-3.987c0.039,0 0,0 0,0Z" style="fill:#1ba638;fill-rule:nonzero;"/><path d="M93.871,27.548c-12.387,0 -22.452,10.065 -22.452,22.452c0,12.387 10.065,22.452 22.452,22.452c7.084,0 13.781,-3.368 18,-9.058c1.045,-1.239 0.89,-3.097 -0.348,-4.142c-1.239,-1.046 -3.097,-0.891 -4.142,0.348c-0.039,0.039 -0.078,0.116 -0.116,0.155l-0.078,0.116c-5.458,7.355 -15.832,8.864 -23.187,3.406c-3.368,-2.516 -5.652,-6.193 -6.426,-10.335l35.807,0c1.625,0 2.942,-1.316 2.942,-2.942c0,-12.387 -10.065,-22.452 -22.452,-22.452Zm-16.297,19.51c1.626,-9.019 10.258,-14.981 19.278,-13.316c6.774,1.239 12.116,6.542 13.316,13.316l-32.594,0Z" style="fill:#1ba638;fill-rule:nonzero;"/><path d="M164.206,50c0,-12.387 -10.064,-22.452 -22.451,-22.452c-12.387,0 -22.452,10.065 -22.452,22.452c0,12.387 10.065,22.452 22.452,22.452c7.084,0 13.78,-3.368 18,-9.058c0.929,-1.317 0.619,-3.175 -0.697,-4.104c-1.277,-0.929 -3.058,-0.658 -4.026,0.581c-5.458,7.355 -15.832,8.864 -23.187,3.406c-3.368,-2.516 -5.651,-6.193 -6.426,-10.335l35.807,0c1.664,0 2.98,-1.316 2.98,-2.942Zm-38.748,-2.942c1.626,-9.019 10.258,-14.981 19.277,-13.316c6.775,1.239 12.117,6.542 13.317,13.316l-32.594,0Z" style="fill:#1ba638;fill-rule:nonzero;"/><path d="M193.935,32.697c-1.354,-2.555 -3.793,-4.103 -6.464,-4.103c-2.671,0 -5.11,1.548 -6.465,4.103l-18.309,34.722c-0.813,1.433 -0.271,3.213 1.122,4.026c1.433,0.813 3.213,0.271 4.026,-1.122l0.078,-0.117l5.032,-9.561l21.639,0c1.587,0 2.903,-1.316 2.903,-2.903c0,-1.587 -1.316,-2.903 -2.903,-2.903l-18.581,0l10.219,-19.355c0.31,-0.619 0.774,-0.968 1.278,-0.968c0.503,0 0.929,0.349 1.277,0.968l18.348,34.722c0.813,1.433 2.594,1.936 4.026,1.123c1.355,-0.774 1.897,-2.477 1.2,-3.871l-18.426,-34.761Z" style="fill:#1ba638;fill-rule:nonzero;"/></svg>