<?xml version="1.0" encoding="UTF-8" standalone="no"?><!DOCTYPE svg PUBLIC "-//W3C//DTD SVG 1.1//EN" "http://www.w3.org/Graphics/SVG/1.1/DTD/svg11.dtd"><svg width="100%" height="100%" viewBox="0 0 1250 417" version="1.1" xmlns="http://www.w3.org/2000/svg" xmlns:xlink="http://www.w3.org/1999/xlink" xml:space="preserve" style="fill-rule:evenodd;clip-rule:evenodd;stroke-linejoin:round;stroke-miterlimit:1.41421;"><g><path d="M1208.06,144.866c0,11.879 -6.308,17.445 -17.071,17.445c-10.394,0 -16.886,-5.566 -16.886,-17.445c0,-11.873 6.492,-17.444 16.886,-17.444c10.763,0 17.071,5.571 17.071,17.444l0,0Zm-3.339,0c0,-10.394 -4.828,-14.659 -13.732,-14.659c-8.725,0 -13.732,4.265 -13.732,14.659c0,10.394 5.007,14.849 13.732,14.849c8.904,-0.19 13.732,-4.455 13.732,-14.849l0,0Zm-17.26,1.859l0,5.565c0,0.743 -0.742,1.485 -1.485,1.485c-0.742,0 -1.485,-0.742 -1.485,-1.485l0,-14.848c0,-0.743 0.743,-1.485 1.485,-1.485l6.308,0c3.528,0 5.755,2.601 5.755,5.381c0,2.786 -2.227,5.571 -4.638,5.571l3.712,4.639c0.368,0.368 0.368,0.742 0.368,0.927c0,0.742 -0.553,1.485 -1.295,1.485c-0.374,0 -0.932,-0.185 -1.301,-0.743l-4.638,-6.492l-2.786,0l0,0Zm4.639,-2.417c1.859,0 2.785,-1.295 2.785,-2.97c0,-1.479 -0.926,-2.78 -2.785,-2.78l-4.823,0l0,5.75l4.823,0Z" style="fill:#37324c;fill-rule:nonzero;"/><path d="M943.81,290.356c-5.755,0 -10.578,-3.154 -13.174,-8.725l-56.598,-134.353c0,0 -0.19,-0.369 -0.19,-0.553c-0.368,-1.116 -0.927,-2.786 -0.927,-5.197c0,-7.983 6.124,-14.106 14.107,-14.106c6.308,0 10.762,3.154 13.174,9.093l43.608,106.52l43.609,-106.704c2.97,-7.609 8.909,-9.094 13.174,-9.094c7.982,0 14.106,6.124 14.106,14.101c0,2.601 -0.558,4.271 -0.927,5.197l-0.189,0.743l-56.409,134.169c-2.785,5.755 -7.608,8.909 -13.364,8.909l0,0Z" style="fill:#4fbfa5;fill-rule:nonzero;"/><path d="M943.81,290.356c-5.755,0 -10.578,-3.154 -13.174,-8.725l-56.598,-134.353c0,0 -0.19,-0.369 -0.19,-0.553c-0.368,-1.116 -0.927,-2.786 -0.927,-5.197c0,-7.983 6.124,-14.106 14.107,-14.106c6.308,0 10.762,3.154 13.174,9.093l46.762,114.497l10.579,29.324l-0.559,1.295c-2.595,5.571 -7.418,8.725 -13.174,8.725l0,0Z" style="fill:#29a092;fill-rule:nonzero;"/><g><path d="M185.753,125.568c-6.866,0 -12.248,5.382 -12.248,12.248l0,10.204c-14.474,-14.285 -33.588,-22.452 -53.628,-22.452c-43.051,0 -77.94,36.927 -77.94,82.204c0,45.283 35.074,82.21 78.124,82.21c19.856,0 39.154,-8.167 53.629,-22.826l0,10.579c0,6.682 5.571,12.247 12.247,12.247c6.682,0 12.253,-5.565 12.253,-12.247l0,-139.919c-0.19,-6.866 -5.571,-12.248 -12.437,-12.248l0,0Zm-65.876,139.919c-29.508,0 -53.629,-25.98 -53.629,-57.715c0,-32.103 24.121,-58.083 53.629,-58.083c29.507,0 53.628,25.98 53.628,58.083c0,31.735 -23.936,57.715 -53.628,57.715l0,0Z" style="fill:#37324c;fill-rule:nonzero;"/><path d="M302.851,126.126c-18.745,0 -34.888,7.419 -44.166,20.041l0,-5.382c0,-7.424 -5.755,-13.174 -13.18,-13.174c-7.419,0 -13.174,5.75 -13.174,13.174l0,136.207c0,7.425 5.755,13.174 13.174,13.174c7.425,0 13.18,-5.749 13.18,-13.174l0,-75.154c0,-31.176 16.512,-49.732 44.166,-49.732c7.051,0 12.99,-5.755 12.99,-12.99c0,-7.056 -5.755,-12.99 -12.99,-12.99Z" style="fill:#37324c;fill-rule:nonzero;"/><path d="M439.243,250.27c-3.154,0 -5.382,1.116 -7.793,2.785c-7.425,5.382 -18.556,13.733 -36.927,13.733c-29.876,0 -44.351,-19.114 -44.351,-58.273c0,-38.97 14.475,-57.894 44.351,-57.894c20.967,0 29.502,9.647 33.957,14.659c2.97,3.339 5.939,4.823 9.836,4.823c6.866,0 12.063,-5.197 12.063,-12.063c0,-3.154 -1.116,-5.381 -2.785,-7.793c-2.97,-4.08 -19.114,-23.936 -53.071,-23.936c-46.394,0 -70.889,28.391 -70.889,82.204c0,54.002 24.495,82.394 70.889,82.394c29.134,0 46.02,-13.917 51.77,-18.556c3.712,-3.338 5.197,-6.308 5.197,-10.204c0,-6.498 -5.566,-11.879 -12.247,-11.879l0,0Z" style="fill:#37324c;fill-rule:nonzero;"/><path d="M537.596,195.341c-18.929,-6.492 -35.073,-12.063 -35.073,-25.98c0,-15.217 16.886,-17.445 27.096,-17.445c18.181,0 27.275,6.314 34.331,13.18c2.411,2.412 5.381,3.707 8.719,3.707c6.682,0 12.063,-5.381 12.063,-12.058c0,-3.528 -1.484,-6.124 -2.785,-7.798c-10.763,-14.285 -29.508,-22.268 -52.328,-22.268c-32.846,0 -53.26,16.334 -53.26,42.682c0,32.103 28.023,41.571 52.886,50.106c18.371,6.308 34.331,11.689 34.331,25.053c0,18.371 -20.414,21.151 -32.662,21.151c-16.702,0 -29.876,-5.007 -40.454,-15.585c-3.339,-3.338 -6.867,-4.081 -9.094,-4.081c-6.676,0 -12.058,5.381 -12.058,12.058c0,3.154 1.111,5.381 2.78,7.798c9.652,12.432 31.735,24.864 58.642,24.864c36.926,0 58.826,-17.255 58.826,-46.205c0.184,-31.177 -27.465,-40.828 -51.96,-49.179l0,0Z" style="fill:#37324c;fill-rule:nonzero;"/><path d="M747.477,193.672c0,-11.137 -3.154,-67.177 -65.876,-67.177c-45.093,0 -70.889,29.876 -70.889,82.21c0,53.997 25.606,82.393 74.227,82.393c32.662,0 50.291,-16.149 53.445,-19.303c2.227,-2.227 4.454,-4.823 4.454,-9.462c0,-6.682 -5.381,-12.063 -12.063,-12.063c-3.154,0 -5.013,0.742 -7.424,2.412c-9.278,7.055 -19.856,13.732 -38.412,13.732c-28.575,0 -46.578,-18.74 -47.505,-49.174l94.452,0c15.591,0.184 15.591,-14.106 15.591,-23.568l0,0Zm-65.876,-43.051c25.79,0 39.338,14.475 39.896,43.235l-84.063,0c2.78,-28.018 18.372,-43.235 44.167,-43.235Z" style="fill:#37324c;fill-rule:nonzero;"/><path d="M845.273,127.053c-18.556,0 -34.516,7.419 -43.609,19.856l0,-5.381c0,-7.424 -5.755,-13.18 -13.174,-13.18c-7.424,0 -13.18,5.756 -13.18,13.18l0,134.722c0,7.424 5.756,13.174 13.18,13.174c7.419,0 13.174,-5.75 13.174,-13.174l0,-74.412c0,-30.808 16.328,-49.363 43.609,-49.363c7.05,0 12.805,-5.75 12.805,-12.806c-0.19,-6.866 -5.755,-12.616 -12.805,-12.616Z" style="fill:#37324c;fill-rule:nonzero;"/><path d="M1144.97,250.27c-3.153,0 -5.007,0.742 -7.418,2.412c-9.278,7.055 -19.856,13.732 -38.417,13.732c-28.576,0 -46.579,-18.74 -47.505,-49.174l94.457,0c15.775,0 15.775,-14.291 15.775,-23.753c0,-11.136 -3.159,-67.176 -65.881,-67.176c-45.094,0 -70.889,29.876 -70.889,82.204c0,54.002 25.611,82.394 74.232,82.394c32.657,0 50.291,-16.144 53.445,-19.298c2.227,-2.227 4.449,-4.823 4.449,-9.462c-0.184,-6.498 -5.566,-11.879 -12.248,-11.879l0,0Zm-93.34,-56.414c2.785,-27.833 18.371,-43.235 44.166,-43.235c25.796,0 39.154,14.475 39.897,43.235l-84.063,0l0,0Z" style="fill:#37324c;fill-rule:nonzero;"/></g></g></svg>