<?xml version="1.0" encoding="UTF-8" standalone="no"?><!DOCTYPE svg PUBLIC "-//W3C//DTD SVG 1.1//EN" "http://www.w3.org/Graphics/SVG/1.1/DTD/svg11.dtd"><svg width="100%" height="100%" viewBox="0 0 300 100" version="1.1" xmlns="http://www.w3.org/2000/svg" xmlns:xlink="http://www.w3.org/1999/xlink" xml:space="preserve" style="fill-rule:evenodd;clip-rule:evenodd;stroke-linejoin:round;stroke-miterlimit:1.41421;"><g><path d="M162.55,71.567c-0.244,-0.244 -0.365,-0.488 -0.487,-0.731c-3.656,-4.874 -7.311,-9.87 -11.088,-14.744c-0.244,-0.365 -0.366,-0.609 0,-1.096c3.655,-4.874 7.311,-9.748 10.966,-14.622c0.122,-0.244 0.365,-0.487 0.487,-0.731c-3.046,0 -5.848,0 -8.773,0c-0.487,0 -0.853,0.122 -1.218,0.609c-2.071,2.925 -4.265,5.727 -6.336,8.651c-0.122,0.122 -0.244,0.366 -0.366,0.488c-0.121,-0.122 -0.243,-0.244 -0.365,-0.366c-2.193,-2.924 -4.387,-5.848 -6.458,-8.773c-0.244,-0.365 -0.487,-0.487 -0.975,-0.487l-8.773,0c0.122,0.244 0.244,0.365 0.366,0.609c3.655,4.874 7.311,9.87 10.844,14.744c0.244,0.365 0.366,0.609 0,1.096c-3.777,4.996 -7.432,9.87 -11.21,14.865c-0.122,0.244 -0.243,0.366 -0.487,0.61l9.138,0c0.244,0 0.488,-0.244 0.731,-0.366c1.584,-2.071 3.047,-4.143 4.631,-6.214c0.853,-1.097 1.705,-2.193 2.558,-3.412c0.122,0.244 0.366,0.366 0.488,0.609c2.193,2.925 4.386,5.971 6.579,8.895c0.244,0.366 0.488,0.488 0.853,0.488c2.803,0 5.605,0 8.286,0c0.244,-0.122 0.365,-0.122 0.609,-0.122Z" style="fill:#2fc7f7;fill-rule:nonzero;"/><path d="M86.031,63.525c-0.244,0.122 -0.488,0.244 -0.61,0.365c-1.34,0.732 -2.802,1.097 -4.386,1.097c-1.462,0 -2.315,-0.731 -2.559,-2.193c-0.122,-0.731 -0.244,-1.462 -0.244,-2.193l0,-13.891l6.946,0c0.609,0 0.731,-0.244 0.853,-0.731c0.365,-1.218 0.731,-2.437 1.096,-3.655c0.244,-0.853 0.488,-1.828 0.853,-2.803c-3.29,0 -6.458,0 -9.748,0c0,-3.411 0,-6.701 0,-10.113c-0.121,0 -0.121,0 -0.243,0c-2.925,0.853 -5.727,1.584 -8.529,2.437c-0.122,0 -0.366,0.365 -0.366,0.609l0,7.067c-1.95,0 -3.899,0 -5.849,0c0,2.437 0,4.752 0,7.067c1.95,0 3.899,0 5.849,0l0,16.693c0,4.387 2.559,7.555 6.823,8.408c3.29,0.731 6.458,0.243 9.626,-0.731c1.097,-0.366 2.072,-0.853 3.29,-1.341c-0.975,-1.949 -1.828,-4.021 -2.802,-6.092Z" style="fill:#2fc7f7;fill-rule:nonzero;"/><path d="M101.018,71.567l0,-19.861c0,-2.559 0,-2.559 2.315,-3.899c1.584,-0.853 3.168,-1.341 4.874,-0.853c0.974,0.244 1.949,0.609 2.924,0.975c0.975,-2.437 2.071,-4.996 3.168,-7.433c-0.487,-0.244 -0.853,-0.487 -1.218,-0.609c-3.29,-1.462 -6.458,-0.975 -9.383,0.975c-1.096,0.731 -1.949,1.462 -3.046,2.315c-0.243,-0.853 -0.609,-1.828 -0.853,-2.681c-0.122,-0.366 -0.243,-0.487 -0.731,-0.487l-7.067,0c0,10.6 0,21.201 0,31.923c2.924,-0.365 5.849,-0.365 9.017,-0.365Z" style="fill:#2fc7f7;fill-rule:nonzero;"/><rect x="50.573" y="39.643" width="9.017" height="31.802" style="fill:#2fc7f7;fill-rule:nonzero;"/><rect x="116.736" y="39.643" width="9.017" height="31.924" style="fill:#2fc7f7;fill-rule:nonzero;"/><path d="M126.727,29.773c0,-3.046 -2.315,-5.239 -5.483,-5.239c-3.168,0 -5.605,2.315 -5.605,5.239c0,3.047 2.437,5.362 5.605,5.362c3.046,0 5.483,-2.315 5.483,-5.362Z" style="fill:#2fc7f7;fill-rule:nonzero;"/><path d="M60.565,29.773c0,-3.046 -2.315,-5.239 -5.483,-5.239c-3.168,0 -5.605,2.315 -5.605,5.239c0,3.169 2.315,5.362 5.605,5.362c3.168,0 5.483,-2.315 5.483,-5.362Z" style="fill:#2fc7f7;fill-rule:nonzero;"/><path d="M13.898,27.093l14.377,0c2.925,0 5.727,0.609 8.286,2.071c5.361,3.168 6.945,10.114 3.412,15.109c-0.488,0.609 -0.975,1.219 -1.584,1.706c-0.61,0.487 -1.219,0.853 -1.828,1.34c0.244,0.122 0.366,0.122 0.609,0.244c5.118,1.584 8.286,6.458 7.677,11.697c-0.732,5.849 -4.509,10.114 -10.479,11.576c-1.584,0.365 -3.29,0.609 -4.996,0.609c-4.874,0.122 -9.869,0 -14.743,0c-0.244,0 -0.488,0 -0.731,0c0,-14.743 0,-29.487 0,-44.352Zm9.26,36.919c1.949,0 3.777,0 5.605,0c0.975,0 1.828,-0.122 2.802,-0.365c2.681,-0.731 3.899,-2.315 4.021,-5.24c0.122,-2.315 -1.218,-4.142 -3.411,-4.995c-0.61,-0.244 -1.219,-0.366 -1.828,-0.366c-2.315,-0.122 -4.63,-0.122 -6.945,-0.122c0,0 -0.122,0 -0.122,0.122c-0.122,3.534 -0.122,7.189 -0.122,10.966Zm0,-29.365c0,3.534 0,7.067 0,10.723c1.828,-0.122 3.533,0 5.239,-0.244c2.559,-0.365 4.265,-2.315 4.387,-4.752c0.122,-2.559 -1.341,-4.63 -3.899,-5.361c-1.828,-0.609 -3.778,-0.244 -5.727,-0.366Z" style="fill:#2fc7f7;fill-rule:nonzero;"/><path d="M162.55,71.567l-8.895,0c-0.365,0 -0.609,-0.122 -0.853,-0.488c-2.193,-2.924 -4.386,-5.97 -6.579,-8.894c-0.122,-0.122 -0.244,-0.366 -0.488,-0.61c-0.853,1.097 -1.705,2.194 -2.558,3.412c-1.584,2.071 -3.047,4.143 -4.631,6.214c-0.121,0.244 -0.487,0.366 -0.731,0.366c-2.924,0 -5.848,0 -8.773,0c-0.121,0 -0.121,0 -0.365,0c0.244,-0.244 0.365,-0.488 0.487,-0.609c3.778,-4.996 7.433,-9.87 11.21,-14.866c0.366,-0.365 0.244,-0.609 0,-1.096c-3.655,-4.874 -7.311,-9.87 -10.844,-14.744c-0.122,-0.122 -0.244,-0.365 -0.366,-0.609l8.773,0c0.488,0 0.731,0.122 0.975,0.487c2.193,2.925 4.265,5.849 6.458,8.773c0.122,0.122 0.122,0.244 0.365,0.366c0.122,-0.122 0.244,-0.366 0.366,-0.487c2.071,-2.803 4.265,-5.727 6.336,-8.652c0.365,-0.487 0.609,-0.609 1.218,-0.609c2.925,0 5.727,0 8.773,0c-0.243,0.244 -0.365,0.488 -0.487,0.731c-3.655,4.874 -7.311,9.748 -10.966,14.622c-0.366,0.487 -0.244,0.731 0,1.096c3.655,4.874 7.311,9.87 11.088,14.744c0.243,0.365 0.365,0.487 0.487,0.853Z" style="fill:#2fc7f7;fill-rule:nonzero;"/><path d="M86.031,63.525c0.853,2.071 1.705,4.143 2.68,6.336c-1.096,0.487 -2.193,0.975 -3.29,1.34c-3.168,0.975 -6.336,1.462 -9.625,0.731c-4.265,-0.853 -6.824,-4.142 -6.824,-8.407l0,-16.693c-1.949,0 -3.899,0 -5.848,0c0,-2.437 0,-4.752 0,-7.067c1.949,0 3.777,0 5.848,0l0,-7.067c0,-0.244 0.122,-0.488 0.366,-0.609c2.802,-0.853 5.726,-1.706 8.529,-2.437c0,0 0.122,0 0.244,0c0,3.29 0,6.701 0,10.113c3.289,0 6.457,0 9.747,0c-0.243,0.975 -0.487,1.828 -0.853,2.802c-0.365,1.219 -0.731,2.437 -1.096,3.656c-0.122,0.487 -0.366,0.731 -0.853,0.731l-6.945,0l0,13.89c0,0.731 0.121,1.462 0.243,2.194c0.244,1.462 1.097,2.071 2.559,2.193c1.584,0 3.046,-0.366 4.387,-1.097c0.365,-0.365 0.487,-0.487 0.731,-0.609Z" style="fill:#2fc7f7;fill-rule:nonzero;"/><path d="M101.018,71.567c-3.046,0 -6.093,0 -9.017,0c0,-10.601 0,-21.201 0,-31.924l7.067,0c0.488,0 0.609,0.122 0.731,0.487c0.244,0.975 0.488,1.828 0.853,2.681c1.097,-0.731 1.95,-1.584 3.046,-2.315c2.925,-1.95 6.093,-2.437 9.383,-0.975c0.365,0.122 0.731,0.366 1.218,0.609c-1.097,2.559 -2.071,4.996 -3.168,7.433c-0.975,-0.365 -1.95,-0.731 -2.924,-0.975c-1.706,-0.365 -3.412,0 -4.874,0.853c-2.315,1.341 -2.315,1.341 -2.315,3.899l0,20.227Z" style="fill:#2fc7f7;fill-rule:nonzero;"/><rect x="50.573" y="39.643" width="9.017" height="31.802" style="fill:#2fc7f7;fill-rule:nonzero;"/><rect x="116.736" y="39.643" width="9.017" height="31.924" style="fill:#2fc7f7;fill-rule:nonzero;"/><path d="M126.727,29.773c0,3.047 -2.315,5.362 -5.483,5.484c-3.168,0 -5.605,-2.315 -5.605,-5.362c0,-3.046 2.437,-5.239 5.605,-5.239c3.168,-0.122 5.483,2.071 5.483,5.117Z" style="fill:#2fc7f7;fill-rule:nonzero;"/><path d="M60.565,29.773c0,3.047 -2.315,5.362 -5.483,5.362c-3.168,0 -5.605,-2.315 -5.605,-5.362c0,-3.046 2.437,-5.239 5.605,-5.239c3.168,0 5.483,2.193 5.483,5.239Z" style="fill:#2fc7f7;fill-rule:nonzero;"/></g><g><path d="M174.369,34.16c0.366,-0.122 0.61,-0.244 0.975,-0.366c2.071,-0.731 4.143,-1.584 6.336,-2.193c2.681,-0.731 5.361,-0.975 8.164,-0.487c2.68,0.609 4.264,2.193 4.63,4.752c0.244,1.706 -0.244,3.168 -1.34,4.508c-1.097,1.584 -2.559,2.681 -4.021,3.777c-2.194,1.706 -4.509,3.29 -6.702,4.996c-5.97,4.63 -10.113,10.601 -11.575,18.155c-0.244,1.462 -0.488,2.925 -0.731,4.387c11.941,0 23.882,0 35.701,0c0,-2.925 0,-5.727 0,-8.651c-7.433,0 -14.866,0 -22.298,0c0.122,-0.244 0.122,-0.488 0.243,-0.61c0.61,-1.462 1.463,-2.802 2.437,-3.899c1.828,-2.193 4.021,-3.899 6.215,-5.605c2.68,-2.071 5.483,-4.021 7.92,-6.579c3.168,-3.168 5.117,-6.824 4.995,-11.454c-0.243,-4.874 -2.315,-8.529 -6.701,-10.844c-3.412,-1.706 -6.946,-2.072 -10.723,-1.95c-5.483,0.244 -10.6,1.584 -15.474,3.899c-0.122,0.122 -0.244,0.122 -0.366,0.244c0.488,2.681 1.341,5.239 2.315,7.92Z" style="fill:#0066a1;fill-rule:nonzero;"/><path d="M174.369,34.16c-0.853,-2.681 -1.706,-5.239 -2.558,-7.798c0.121,-0.122 0.243,-0.122 0.365,-0.244c4.996,-2.193 10.113,-3.655 15.475,-3.899c3.655,-0.122 7.31,0.244 10.722,1.95c4.386,2.193 6.58,5.97 6.702,10.844c0.121,4.63 -1.828,8.285 -4.996,11.453c-2.437,2.437 -5.24,4.387 -7.92,6.58c-2.193,1.706 -4.387,3.412 -6.214,5.605c-0.975,1.219 -1.828,2.437 -2.437,3.899c-0.122,0.244 -0.122,0.366 -0.244,0.609c7.433,0 14.865,0 22.298,0c0,2.925 0,5.727 0,8.652c-11.819,0 -23.638,0 -35.701,0c0.244,-1.463 0.366,-2.925 0.731,-4.387c1.462,-7.554 5.605,-13.403 11.575,-18.155c2.194,-1.706 4.509,-3.29 6.702,-4.996c1.462,-1.096 2.924,-2.315 4.021,-3.777c0.975,-1.34 1.462,-2.802 1.34,-4.508c-0.365,-2.559 -1.949,-4.143 -4.63,-4.752c-2.802,-0.61 -5.483,-0.244 -8.164,0.487c-2.193,0.609 -4.264,1.462 -6.336,2.193c-0.121,-0.122 -0.365,0.122 -0.731,0.244Z" style="fill:#0066a1;fill-rule:nonzero;"/><path d="M226.398,59.991c-7.433,0 -14.622,0 -22.055,0l0,-6.092c0,-0.244 0.122,-0.609 0.244,-0.731c8.042,-10.113 15.962,-20.348 24.004,-30.462c0.122,-0.243 0.365,-0.365 0.609,-0.365l6.945,0c0,9.748 0,19.495 0,29.365c2.437,0 4.874,0 7.311,0c0,2.68 0,5.361 0,8.164c-2.437,0 -4.752,0 -7.189,0c0,3.899 0,7.798 0,11.575c-3.29,0 -6.579,0 -9.869,0c0,-3.655 0,-7.555 0,-11.454Zm0.122,-22.176c-3.534,4.752 -7.189,9.504 -10.723,14.135c3.534,0 6.945,0 10.357,0c0.244,-4.874 0.366,-9.504 0.366,-14.135Z" style="fill:#0066a1;fill-rule:nonzero;"/><path d="M271.115,54.63c-9.138,0 -16.571,-7.432 -16.571,-16.571c0,-9.138 7.433,-16.571 16.571,-16.571c9.139,0 16.571,7.433 16.571,16.571c0,9.139 -7.432,16.571 -16.571,16.571Zm0,-30.096c-7.31,-0.122 -13.525,6.214 -13.525,13.525c0,7.311 6.215,13.525 13.525,13.525c7.311,0 13.525,-6.214 13.525,-13.525c0,-7.311 -6.214,-13.647 -13.525,-13.525Z" style="fill:#0066a1;fill-rule:nonzero;"/><path d="M269.288,39.399c0,-3.168 0,-6.336 0,-9.504c1.096,0 2.193,0 3.411,0c0,2.072 0,4.021 0,6.215c1.95,0 3.778,0 5.727,0c0,1.096 0,2.193 0,3.289c-3.046,0 -6.092,0 -9.138,0Z" style="fill:#0066a1;fill-rule:nonzero;"/></g></svg>