<?xml version="1.0" encoding="UTF-8" standalone="no"?><!DOCTYPE svg PUBLIC "-//W3C//DTD SVG 1.1//EN" "http://www.w3.org/Graphics/SVG/1.1/DTD/svg11.dtd"><svg width="100%" height="100%" viewBox="0 0 300 100" version="1.1" xmlns="http://www.w3.org/2000/svg" xmlns:xlink="http://www.w3.org/1999/xlink" xml:space="preserve" style="fill-rule:evenodd;clip-rule:evenodd;stroke-linejoin:round;stroke-miterlimit:1.41421;"><path id="path4380" d="M191.347,65.664l-7.663,0l0,-31.269l24.648,0.02c0,0 4.513,-0.168 7.382,2.668c0,0 2.93,2.447 2.93,8.426l0,20.149l-7.642,0l0,-20.67c0,0 0.094,-2.108 -0.625,-2.849c0,0 -0.635,-0.804 -1.843,-0.804l-17.203,0l0.016,24.329l0,0Zm32.616,-0.005l0,-29.287l0,-1.964l30.76,0l0,6.949l-23.131,-0.002l0,5.312l16.072,0l0,6.711l-16.072,0l0,5.33l23.283,0l0,6.951l-30.912,0l0,0Zm-53.628,0l0,-29.287l0,-1.964l7.629,0l0,31.251l-7.629,0Zm97.326,-26.268l0,-1.053l0,1.053Zm-1.966,26.267l0,-24.302l-7.203,0l0,-6.949l28.642,0l0,6.949l-13.81,0l0,24.302l-7.629,0Zm-118.608,-26.267l0,-1.053l0,1.053Zm-1.967,26.267l0,-24.302l-7.202,0l0,-6.949l28.642,0l0,6.949l-13.81,0l0,24.302l-7.63,0l0,0Zm-23.015,-18.996c1.864,-0.015 2.98,0.001 3.429,-0.272c0,0 0.783,-0.433 0.792,-1.363l0.002,-2.043c0,-0.934 -0.793,-1.363 -0.793,-1.363c-0.595,-0.323 -1.603,-0.263 -3.996,-0.265l-14.866,0l0,5.306l15.773,0l-0.341,0l0,0Zm4.111,18.996l0,-10.664c0,-0.959 -0.801,-1.361 -0.801,-1.361c-0.362,-0.224 -1.444,-0.265 -3.038,-0.265l0.37,0l-16.073,0l0,12.29l-7.629,0l0,-29.286l0,-1.965l23.817,0c4.113,0.013 6.953,0.618 8.909,2.517c1.922,1.958 2.178,4.52 2.187,7.185l0,2.225c0.024,2.265 -1.166,4.331 -2.585,5.534l0.286,0.142c0.579,0.281 0.895,0.678 0.895,0.678c1.08,1.378 1.067,2.564 1.065,4.023l0,8.948l-7.403,0l0,-0.001Zm-115.382,-31.253l0,31.251l7.629,0l0,-12.279l23.115,0l0,-6.714l-23.115,0l0,-5.309l26.873,0l0,-6.949l-34.502,0Z" style="fill:#231f20;fill-rule:nonzero;"/><path id="path4384" d="M284.512,60.126l0,1.435l1.336,0c0.361,0 0.712,-0.099 0.766,-0.635c0.076,-0.712 -0.438,-0.8 -0.766,-0.8l-1.336,0Zm-0.537,-0.471l1.862,0c0.646,0 1.271,0.121 1.324,1.062c0.023,0.539 -0.141,0.734 -0.547,1.042c0.428,0.274 0.44,0.339 0.505,1.062c0.043,0.548 -0.034,0.635 0.197,0.997l-0.635,0l-0.088,-0.526c-0.087,-0.494 0.153,-1.259 -0.711,-1.259l-1.37,0l0,1.785l-0.536,0l0,-4.163l-0.001,0Zm1.401,-1.15c-1.838,0 -3.338,1.5 -3.327,3.353c0,1.838 1.489,3.338 3.339,3.329c1.841,0 3.341,-1.491 3.341,-3.341c0,-1.841 -1.5,-3.341 -3.353,-3.341m0.011,7.118c-2.09,0 -3.778,-1.686 -3.778,-3.777c-0.009,-2.081 1.688,-3.778 3.778,-3.778c2.082,0 3.779,1.697 3.779,3.778c0,2.091 -1.697,3.768 -3.779,3.777" style="fill:#231f20;fill-rule:nonzero;"/><path id="path4408" d="M88.566,65.956c2.479,-0.842 4.407,-3.695 4.872,-7.286l0,-1.037l-12.708,0l0,8.323l7.836,0Zm4.873,-23.585l0,-0.939c-0.487,-3.745 -2.56,-6.695 -5.202,-7.389l-7.506,0l0,8.328l12.708,0Zm-44.733,15.263l0,1.028c0.46,3.592 2.389,6.453 4.874,7.295l7.796,0l0,-8.323l-12.67,0l0,0Zm5.201,-23.59c-2.639,0.694 -4.718,3.647 -5.2,7.396l0,0.932l12.669,0l0,-8.328l-7.469,0l0,0Zm39.533,11.794l-12.708,0l0,8.328l12.708,0l0,-8.328l0,0Zm-28.602,20.118l12.432,0l0,-8.323l-12.432,0l0,8.323Zm12.432,-31.912l-12.432,0l0,8.328l12.432,0l0,-8.328l0,0Zm-28.564,20.122l12.67,0l0,-8.328l-12.67,0l0,8.328Z" style="fill:#ee2e24;fill-rule:nonzero;"/></svg>