<?xml version="1.0" encoding="UTF-8" standalone="no"?><!DOCTYPE svg PUBLIC "-//W3C//DTD SVG 1.1//EN" "http://www.w3.org/Graphics/SVG/1.1/DTD/svg11.dtd"><svg width="100%" height="100%" viewBox="0 0 300 100" version="1.1" xmlns="http://www.w3.org/2000/svg" xmlns:xlink="http://www.w3.org/1999/xlink" xml:space="preserve" style="fill-rule:evenodd;clip-rule:evenodd;stroke-linejoin:round;stroke-miterlimit:1.41421;"><clipPath id="_clip1"><rect x="53.898" y="9.865" width="192.203" height="80.269"/></clipPath><g clip-path="url(#_clip1)"><g id="g3646"><path id="path3346" d="M115.558,24.645l-57.549,0l0,-10.669l57.549,0l0,10.669Zm4.112,-14.78l-65.772,0l0,18.888l65.772,0l0,-18.888l0,0Z" style="fill:#00b188;fill-rule:nonzero;"/><path id="path3350" d="M58.009,59.971l-4.111,0l0,-18.888l4.111,0l0,7.464l7.346,0l0,-7.464l4.111,0l0,18.888l-4.111,0l0,-7.827l-7.346,0l0,7.827" style="fill:#231f20;fill-rule:nonzero;"/><path id="path3354" d="M75.692,51.69l4.897,0c-0.091,-1.389 -0.664,-2.357 -2.267,-2.357c-1.209,0 -2.268,0.515 -2.63,2.357l0,0Zm3.113,8.583c-4.171,0 -7.012,-2.629 -7.012,-6.949c0,-4.202 2.781,-7.103 6.469,-7.103c4.02,0 6.015,2.69 6.015,6.71l0,1.511l-8.585,0c0.485,2.084 2.116,2.627 3.749,2.627c1.42,0 2.447,-0.301 3.717,-1.088l0.152,0l0,3.113c-1.088,0.787 -2.631,1.179 -4.505,1.179" style="fill:#231f20;fill-rule:nonzero;"/><path id="path3358" d="M95.006,52.054l-2.116,7.917l-3.596,0l-4.112,-13.298l0,-0.151l3.931,0l2.236,7.949l2.116,-7.949l3.204,0l2.146,7.949l2.268,-7.949l3.779,0l0,0.151l-4.112,13.298l-3.597,0l-2.146,-7.917" style="fill:#231f20;fill-rule:nonzero;"/><path id="path3362" d="M111.54,60.273c-3.264,0 -4.595,-1.299 -4.595,-4.351l0,-14.838l3.99,0l0,14.566c0,0.937 0.362,1.269 1.148,1.269c0.272,0 0.666,-0.09 0.907,-0.181l0.061,0l0,3.294c-0.332,0.12 -0.907,0.241 -1.512,0.241" style="fill:#231f20;fill-rule:nonzero;"/><path id="path3366" d="M118.069,51.69l4.897,0c-0.091,-1.389 -0.664,-2.357 -2.267,-2.357c-1.208,0 -2.267,0.515 -2.629,2.357l-0.001,0Zm3.114,8.583c-4.172,0 -7.012,-2.629 -7.012,-6.949c0,-4.202 2.78,-7.103 6.468,-7.103c4.02,0 6.015,2.69 6.015,6.71l0,1.511l-8.584,0c0.483,2.084 2.116,2.627 3.747,2.627c1.422,0 2.449,-0.301 3.719,-1.088l0.151,0l0,3.113c-1.088,0.787 -2.629,1.179 -4.504,1.179" style="fill:#231f20;fill-rule:nonzero;"/><path id="path3370" d="M143.036,46.522l2.962,0l0,3.203l-2.962,0l0,5.47c0,1.18 0.454,1.724 1.663,1.724c0.332,0 0.756,-0.031 1.209,-0.182l0.09,0l0,3.143c-0.513,0.182 -1.299,0.392 -2.447,0.392c-3.235,0 -4.505,-1.48 -4.505,-4.896l0,-5.651l-5.108,0l0,5.47c0,1.179 0.454,1.724 1.662,1.724c0.333,0 0.757,-0.031 1.21,-0.182l0.09,0l0,3.143c-0.513,0.182 -1.3,0.392 -2.447,0.392c-3.236,0 -4.505,-1.48 -4.505,-4.896l0,-5.651l-2.056,0l0,-3.203l2.056,0l0,-3.686l3.99,0l0,3.686l5.108,0l0,-3.686l3.991,0l0,3.686" style="fill:#231f20;fill-rule:nonzero;"/><path id="path3374" d="M159.442,50.361c2.088,0 3.083,-1.178 3.083,-2.871c0,-1.754 -0.995,-2.932 -3.083,-2.932l-2.6,0l0,5.803l2.6,0l0,0Zm7.256,-2.871c0,4.111 -2.751,6.346 -6.924,6.346l-2.932,0l0,6.135l-4.108,0l0,-18.888l7.04,0c4.173,0 6.924,2.236 6.924,6.407" style="fill:#231f20;fill-rule:nonzero;"/><path id="path3378" d="M175.462,55.74l0,-1.148c-0.605,-0.331 -1.389,-0.452 -2.206,-0.452c-1.299,0 -2.085,0.482 -2.085,1.57c0,1.119 0.786,1.603 1.964,1.603c1.118,0 1.965,-0.575 2.327,-1.573l0,0Zm0.121,2.902c-0.877,1.058 -2.175,1.571 -3.568,1.571c-2.628,0 -4.775,-1.6 -4.775,-4.443c0,-2.628 2.147,-4.381 5.229,-4.381c0.967,0 1.966,0.151 2.993,0.452l0,-0.24c0,-1.451 -0.816,-2.084 -2.961,-2.084c-1.361,0 -2.66,0.39 -3.78,1.026l-0.15,0l0,-3.204c1.027,-0.603 2.842,-1.118 4.624,-1.118c4.051,0 6.257,1.934 6.257,5.319l0,8.431l-3.869,0l0,-1.329" style="fill:#231f20;fill-rule:nonzero;"/><path id="path3382" d="M181.477,53.263c0,-4.322 3.054,-7.042 7.044,-7.042c1.421,0 2.75,0.302 3.748,1.027l0,3.415l-0.152,0c-0.877,-0.664 -1.904,-1.058 -3.082,-1.058c-1.995,0 -3.507,1.362 -3.507,3.658c0,2.296 1.512,3.627 3.507,3.627c1.178,0 2.205,-0.394 3.082,-1.06l0.152,0l0,3.416c-0.998,0.725 -2.327,1.028 -3.748,1.028c-3.99,0 -7.044,-2.688 -7.044,-7.011" style="fill:#231f20;fill-rule:nonzero;"/><path id="path3386" d="M198.766,53.868l0,6.103l-3.988,0l0,-18.888l3.988,0l0,10.758l4.022,-5.319l4.533,0l0,0.151l-4.836,6.105l4.836,7.042l0,0.151l-4.565,0l-3.99,-6.103" style="fill:#231f20;fill-rule:nonzero;"/><path id="path3390" d="M216.268,55.74l0,-1.148c-0.603,-0.331 -1.391,-0.452 -2.206,-0.452c-1.299,0 -2.085,0.482 -2.085,1.57c0,1.119 0.786,1.603 1.962,1.603c1.121,0 1.967,-0.575 2.329,-1.573Zm0.121,2.902c-0.877,1.058 -2.177,1.571 -3.567,1.571c-2.63,0 -4.775,-1.6 -4.775,-4.443c0,-2.628 2.144,-4.381 5.23,-4.381c0.967,0 1.963,0.151 2.991,0.452l0,-0.24c0,-1.451 -0.816,-2.084 -2.962,-2.084c-1.359,0 -2.661,0.39 -3.779,1.026l-0.151,0l0,-3.204c1.028,-0.603 2.842,-1.118 4.624,-1.118c4.053,0 6.259,1.934 6.259,5.319l0,8.431l-3.87,0l0,-1.329" style="fill:#231f20;fill-rule:nonzero;"/><path id="path3394" d="M226.969,48.698c0.724,-1.481 1.784,-2.327 3.265,-2.327c0.544,0 1.087,0.121 1.297,0.242l0,3.808l-0.15,0c-0.453,-0.182 -0.997,-0.302 -1.753,-0.302c-1.239,0 -2.206,0.726 -2.539,2.115l0,7.737l-3.989,0l0,-13.449l3.869,0l0,2.177" style="fill:#231f20;fill-rule:nonzero;"/><path id="path3398" d="M242.112,55.408l0,-4.323c-0.665,-0.966 -1.541,-1.389 -2.54,-1.389c-1.751,0 -2.931,1.271 -2.931,3.567c0,2.296 1.18,3.535 2.931,3.535c0.999,0 1.875,-0.423 2.54,-1.39l0,0Zm0.12,3.174c-0.846,1.088 -2.177,1.691 -3.989,1.691c-3.447,0 -5.653,-3.141 -5.653,-7.01c0,-3.869 2.206,-7.042 5.653,-7.042c1.753,0 3.022,0.545 3.869,1.542l0,-6.678l3.99,0l0,18.886l-3.87,0l0,-1.389" style="fill:#231f20;fill-rule:nonzero;"/><path id="path3402" d="M53.898,66.14l11.668,0l0,2.296l-9.038,0l0,5.771l8.191,0l0,2.238l-8.191,0l0,6.286l9.038,0l0,2.296l-11.668,0l0,-18.887" style="fill:#231f20;fill-rule:nonzero;"/><path id="path3406" d="M75.207,71.458c2.992,0 4.655,1.965 4.655,5.196l0,8.373l-2.508,0l0,-8.311c0,-1.723 -0.877,-2.962 -2.781,-2.962c-1.571,0 -2.902,0.998 -3.355,2.417l0,8.855l-2.509,0l0,-13.296l2.509,0l0,1.934c0.785,-1.24 2.116,-2.207 3.99,-2.207" style="fill:#231f20;fill-rule:nonzero;"/><path id="path3410" d="M86.604,71.73l3.415,0l0,2.146l-3.415,0l0,7.162c0,1.51 0.786,2.025 2.206,2.025c0.392,0 0.816,-0.06 1.118,-0.181l0.091,0l0,2.145c-0.362,0.151 -0.877,0.272 -1.571,0.272c-3.115,0 -4.352,-1.422 -4.352,-4.019l0,-7.404l-2.298,0l0,-2.146l2.298,0l0,-3.534l2.508,0l0,3.534" style="fill:#231f20;fill-rule:nonzero;"/><path id="path3414" d="M94.221,77.078l6.619,0c-0.09,-1.964 -1.058,-3.474 -3.113,-3.474c-1.904,0 -3.144,1.42 -3.506,3.474l0,0Zm3.96,8.221c-3.9,0 -6.56,-2.6 -6.56,-6.769c0,-4.172 2.478,-7.072 6.076,-7.072c3.658,0 5.562,2.629 5.562,6.527l0,1.149l-9.13,0c0.273,2.69 1.997,3.989 4.384,3.989c1.482,0 2.538,-0.332 3.718,-1.209l0.091,0l0,2.207c-1.088,0.846 -2.51,1.178 -4.141,1.178" style="fill:#231f20;fill-rule:nonzero;"/><path id="path3418" d="M108.729,73.785c0.575,-1.42 1.845,-2.266 3.294,-2.266c0.576,0 1.09,0.09 1.301,0.211l0,2.477l-0.09,0c-0.364,-0.18 -0.968,-0.271 -1.573,-0.271c-1.359,0 -2.508,0.906 -2.932,2.417l0,8.674l-2.508,0l0,-13.297l2.508,0l0,2.055" style="fill:#231f20;fill-rule:nonzero;"/><path id="path3422" d="M121.424,83.032c2.478,0 3.93,-1.964 3.93,-4.655c0,-2.658 -1.452,-4.652 -3.93,-4.652c-1.361,0 -2.63,0.816 -3.295,2.114l0,5.109c0.665,1.298 1.934,2.084 3.295,2.084l0,0Zm0.423,-11.574c3.959,0 6.075,3.234 6.075,6.919c0,3.689 -2.116,6.922 -6.075,6.922c-1.633,0 -3.023,-0.846 -3.718,-1.754l0,6.59l-2.509,0l0,-18.405l2.509,0l0,1.51c0.695,-0.937 2.085,-1.782 3.718,-1.782" style="fill:#231f20;fill-rule:nonzero;"/><path id="path3426" d="M133.394,73.785c0.573,-1.42 1.843,-2.266 3.294,-2.266c0.574,0 1.088,0.09 1.299,0.211l0,2.477l-0.09,0c-0.362,-0.18 -0.967,-0.271 -1.571,-0.271c-1.361,0 -2.509,0.906 -2.932,2.417l0,8.674l-2.509,0l0,-13.297l2.509,0l0,2.055" style="fill:#231f20;fill-rule:nonzero;"/><path id="path3430" d="M141.615,66.351c0.877,0 1.601,0.695 1.601,1.571c0,0.877 -0.724,1.572 -1.601,1.572c-0.846,0 -1.603,-0.695 -1.603,-1.572c0,-0.876 0.757,-1.571 1.603,-1.571" style="fill:#231f20;fill-rule:nonzero;"/><path id="path3432" d="M140.375,85.027l2.51,0l0,-13.297l-2.51,0l0,13.297l0,0Z" style="fill:#231f20;fill-rule:nonzero;"/><path id="path3436" d="M151.832,77.26c1.904,0.604 4.019,1.389 4.019,3.928c0,2.721 -2.236,4.111 -5.107,4.111c-1.754,0 -3.507,-0.424 -4.505,-1.209l0,-2.387l0.122,0c1.119,1.026 2.78,1.48 4.352,1.48c1.42,0 2.691,-0.545 2.691,-1.693c0,-1.178 -1.057,-1.45 -3.144,-2.145c-1.874,-0.604 -3.959,-1.3 -3.959,-3.807c0,-2.57 2.115,-4.08 4.806,-4.08c1.571,0 2.962,0.332 4.08,1.088l0,2.418l-0.09,0c-1.087,-0.877 -2.359,-1.391 -3.93,-1.391c-1.572,0 -2.449,0.695 -2.449,1.632c0,1.058 0.967,1.359 3.114,2.055" style="fill:#231f20;fill-rule:nonzero;"/><path id="path3440" d="M160.628,77.078l6.618,0c-0.09,-1.964 -1.057,-3.474 -3.113,-3.474c-1.904,0 -3.143,1.42 -3.505,3.474l0,0Zm3.959,8.221c-3.899,0 -6.559,-2.6 -6.559,-6.769c0,-4.172 2.479,-7.072 6.075,-7.072c3.659,0 5.562,2.629 5.562,6.527l0,1.149l-9.128,0c0.272,2.69 1.994,3.989 4.382,3.989c1.483,0 2.539,-0.332 3.717,-1.209l0.092,0l0,2.207c-1.087,0.846 -2.509,1.178 -4.142,1.178" style="fill:#231f20;fill-rule:nonzero;"/></g></g></svg>