<?xml version="1.0" encoding="UTF-8" standalone="no"?><!DOCTYPE svg PUBLIC "-//W3C//DTD SVG 1.1//EN" "http://www.w3.org/Graphics/SVG/1.1/DTD/svg11.dtd"><svg width="100%" height="100%" viewBox="0 0 300 100" version="1.1" xmlns="http://www.w3.org/2000/svg" xmlns:xlink="http://www.w3.org/1999/xlink" xml:space="preserve" style="fill-rule:evenodd;clip-rule:evenodd;stroke-linejoin:round;stroke-miterlimit:1.41421;"><path id="path2472" d="M188.006,18.753c-11.831,0 -17.064,4.145 -17.064,13.518l0,8.865l-6.648,0l0,11.893l6.648,0l0,27.11l14.331,0l0,-27.11l8.126,0l0,-11.893l-8.126,0l0,-7.387c0,-2.988 1.897,-4.507 4.876,-4.507c2.154,0 3.052,0.113 4.21,0.444l0,-10.121c-1.657,-0.496 -4.281,-0.812 -6.353,-0.812Zm-166.799,2.216l-9.456,59.17l14.405,0l5.023,-33.02l7.24,33.02l16.694,0l-18.689,-59.17l-15.217,0Zm36.049,0l-9.899,29.474l8.274,26.076l6.131,-29.4l4.801,33.02l14.331,0l-8.643,-59.17l-14.995,0Zm75.274,0l-18.246,59.17l14.404,0l2.734,-8.495l18.763,0l2.659,8.495l14.331,0l-18.172,-59.17l-16.473,0Zm150.991,18.098c-2.63,0 -4.728,2.086 -4.728,4.728c0,2.641 2.098,4.728 4.728,4.728c2.63,0 4.728,-2.087 4.728,-4.728c0,-2.642 -2.098,-4.728 -4.728,-4.728Zm0,1.034c2.033,0 3.693,1.566 3.693,3.694c0,2.116 -1.66,3.767 -3.693,3.767c-2.033,0 -3.694,-1.651 -3.694,-3.767c0,-2.128 1.661,-3.694 3.694,-3.694Zm-142.57,0.148l5.392,18.172l-11.006,0l5.614,-18.172Zm73.723,0.591c-13.336,0 -20.684,10.522 -20.684,20.388c0,9.872 6.681,20.019 20.093,20.019c13.994,0 18.574,-8.046 20.314,-13.592l-12.632,0c-0.736,1.823 -2.458,3.103 -7.091,3.103c-4.146,0 -6.779,-2.884 -6.87,-6.87l27.775,0c0.086,-0.653 0.074,-1.404 0.074,-2.069c0,-10.947 -6.081,-20.979 -20.979,-20.979Zm44.026,0c-13.329,0 -20.683,10.522 -20.683,20.388c0,9.872 6.686,20.019 20.092,20.019c13.991,0 18.654,-8.046 20.389,-13.592l-12.632,0c-0.745,1.823 -2.532,3.103 -7.166,3.103c-4.139,0 -6.781,-2.884 -6.87,-6.87l27.85,0c0.082,-0.653 0.073,-1.404 0.073,-2.069c0,-10.947 -6.157,-20.979 -21.053,-20.979Zm22.826,0.517l0,4.876l1.034,0l0,-1.921l0.887,0l1.108,1.921l1.182,0l-1.256,-1.921c0.875,-0.059 1.33,-0.57 1.33,-1.477c0,-1.304 -0.715,-1.478 -1.847,-1.478l-2.438,0Zm-180.761,0.148c-12.915,0 -19.354,10.002 -19.354,19.871c0,9.869 6.439,19.723 19.354,19.723c6.625,0 9.677,-1.56 11.746,-2.807l0,-12.779c-1.82,1.669 -4.09,2.733 -8.643,2.733c-4.884,0 -8.126,-2.393 -8.126,-6.87c0,-4.477 3.242,-7.461 8.126,-7.461c4.801,0 6.66,1.141 8.643,2.29l0,-12.41c-2.491,-1.082 -6.696,-2.29 -11.746,-2.29Zm181.795,0.739l1.109,0c0.481,0 1.181,-0.021 1.181,0.517c0,0.537 -0.339,0.665 -0.886,0.665l-1.404,0l0,-1.182Zm-68.108,8.273c4.382,0 6.48,2.851 6.722,5.171l-13.223,0c0.083,-2.32 2.107,-5.171 6.501,-5.171Zm44.101,0c4.39,0 6.471,2.851 6.722,5.171l-13.223,0c0.08,-2.32 2.113,-5.171 6.501,-5.171Z" style="fill:#c03;fill-rule:nonzero;"/></svg>