<?xml version="1.0" encoding="UTF-8" standalone="no"?><!DOCTYPE svg PUBLIC "-//W3C//DTD SVG 1.1//EN" "http://www.w3.org/Graphics/SVG/1.1/DTD/svg11.dtd"><svg width="100%" height="100%" viewBox="0 0 300 100" version="1.1" xmlns="http://www.w3.org/2000/svg" xmlns:xlink="http://www.w3.org/1999/xlink" xml:space="preserve" style="fill-rule:evenodd;clip-rule:evenodd;stroke-linejoin:round;stroke-miterlimit:1.41421;"><g id="g166"><path id="path174" d="M131.309,67.618l-12.099,-33.693c-0.155,-0.465 -0.385,-1.08 -0.385,-1.62c0,-1.46 1.234,-2.847 3.001,-2.847c1.543,0 2.549,1.002 3.009,2.462l10.026,29.032l10.098,-29.113c0.46,-1.381 1.386,-2.382 2.92,-2.382l0.313,0c1.622,0 2.624,1.001 3.084,2.382l10.015,29.113l10.184,-29.185c0.385,-1.239 1.226,-2.31 2.85,-2.31c1.694,0 2.93,1.303 2.93,2.771c0,0.537 -0.234,1.151 -0.385,1.62l-12.176,33.77c-0.623,1.764 -1.851,2.69 -3.241,2.69l-0.23,0c-1.543,0 -2.701,-0.926 -3.245,-2.69l-9.937,-28.631l-10.024,28.631c-0.54,1.764 -1.7,2.69 -3.237,2.69l-0.162,0c-1.46,0 -2.689,-0.926 -3.309,-2.69" style="fill:#696566;fill-rule:nonzero;"/><path id="path178" d="M219.506,32.395c0,-1.626 1.311,-3.014 2.929,-3.014c1.707,0 3.014,1.313 3.014,3.014l0,6.837c2.932,-6.64 9.433,-9.774 13.742,-9.774c1.784,0 2.942,1.311 2.942,3.009c0,1.624 -1.075,2.777 -2.633,3.009c-7.724,0.926 -14.049,6.721 -14.049,18.229l0,13.539c0,1.622 -1.233,3.009 -2.931,3.009c-1.7,0 -3.013,-1.319 -3.013,-3.009l-0.001,-34.849Z" style="fill:#696566;fill-rule:nonzero;"/><path id="path182" d="M261.211,70.628c-10.748,0 -19.523,-8.335 -19.523,-20.56l0,-0.158c0,-11.385 7.947,-20.557 18.766,-20.557c11.569,0 18.158,9.546 18.158,20.021c0,1.609 -1.299,2.76 -2.727,2.76l-28.287,0c0.825,8.553 6.798,13.366 13.768,13.366c4.844,0 8.389,-1.911 11.269,-4.587c0.454,-0.377 0.983,-0.683 1.668,-0.683c1.432,0 2.572,1.147 2.572,2.528c0,0.685 -0.302,1.376 -0.915,1.904c-3.703,3.589 -8.096,5.966 -14.749,5.966m11.575,-22.852c-0.608,-7.191 -4.696,-13.451 -12.49,-13.451c-6.809,0 -11.954,5.728 -12.701,13.451l25.191,0Z" style="fill:#696566;fill-rule:nonzero;"/><path id="path186" d="M177.36,58.255l0,-0.155c0,-8.389 6.931,-12.86 17.012,-12.86c5.084,0 8.7,0.693 12.248,1.7l0,-1.392c0,-7.154 -4.401,-10.855 -11.86,-10.855c-4.005,0 -6.336,0.51 -9.267,1.816c-0.379,0.154 -0.768,0.234 -1.068,0.234c-1.386,0 -2.624,-1.159 -2.624,-2.541c0,-1.229 0.536,-1.989 1.621,-2.47c3.92,-1.701 6.875,-2.266 11.953,-2.266c5.616,0 9.929,1.458 12.849,4.386c2.699,2.694 4.086,6.542 4.086,11.626l0,21.963c0,1.688 -1.232,2.924 -2.858,2.924c-1.687,0 -2.83,-1.234 -2.83,-2.771l0,-3.797c-2.777,3.625 -7.4,6.853 -14.392,6.853c-7.394,-0.005 -14.87,-4.235 -14.87,-12.395m29.336,-3.081l0,-3.85c-2.932,-0.845 -6.863,-1.694 -11.709,-1.694c-7.458,0 -11.621,3.237 -11.621,8.236l0,0.153c0,5.003 4.615,7.929 10.01,7.929c7.31,0 13.32,-4.467 13.32,-10.774" style="fill:#696566;fill-rule:nonzero;"/><path id="path190" d="M23.464,31.957c-1.304,-2.858 -4.526,-4.152 -7.535,-2.815c-3.012,1.338 -4.121,4.678 -2.76,7.538l12.633,27.459c1.987,4.304 4.08,6.559 8.01,6.559c4.198,0 6.028,-2.456 8.013,-6.559c0,0 11.019,-23.992 11.129,-24.242c0.112,-0.254 0.466,-1.03 1.587,-1.022c0.948,0.005 1.746,0.762 1.746,1.779l0,23.461c0,3.617 2.005,6.583 5.864,6.583c3.856,0 5.94,-2.966 5.94,-6.583l0,-19.199c0,-3.703 2.654,-6.106 6.27,-6.106c3.616,0 6.023,2.49 6.023,6.106l0,19.199c0,3.617 2.012,6.583 5.864,6.583c3.856,0 5.952,-2.966 5.952,-6.583l0,-19.199c0,-3.703 2.642,-6.106 6.26,-6.106c3.611,0 6.027,2.49 6.027,6.106l0,19.199c0,3.617 2.01,6.583 5.866,6.583c3.854,0 5.946,-2.966 5.946,-6.583l0,-21.85c0,-8.03 -6.458,-13.655 -14.228,-13.655c-7.761,0 -12.622,5.369 -12.622,5.369c-2.584,-3.35 -6.145,-5.362 -12.171,-5.362c-6.36,0 -11.926,5.362 -11.926,5.362c-2.586,-3.35 -6.986,-5.362 -10.63,-5.362c-5.637,0 -10.113,2.478 -12.843,8.722l-8.067,19.015l-10.348,-24.397Z" style="fill:#696566;fill-rule:nonzero;"/><path id="path194" d="M279.092,34.336l0,-0.033c0,-2.687 2.18,-4.95 4.92,-4.95c2.779,0 4.929,2.239 4.929,4.93l0,0.02c0,2.696 -2.174,4.959 -4.929,4.959c-2.778,0 -4.92,-2.232 -4.92,-4.926m8.903,-0.033l0,-0.013c0,-2.21 -1.707,-4.021 -3.983,-4.021c-2.256,0 -3.988,1.843 -3.988,4.034l0,0.026c0,2.204 1.712,4.016 3.988,4.016c2.248,0 3.983,-1.84 3.983,-4.042" style="fill:#696566;fill-rule:nonzero;"/><path id="path198" d="M282.128,32.355c0,-0.293 0.234,-0.527 0.531,-0.527l1.642,0c0.619,0 1.096,0.175 1.392,0.488c0.271,0.263 0.418,0.645 0.418,1.086l0,0.015c0,0.751 -0.379,1.21 -0.952,1.451l0.726,0.884c0.101,0.133 0.169,0.241 0.169,0.403c0,0.291 -0.247,0.483 -0.497,0.483c-0.234,0 -0.392,-0.12 -0.516,-0.271l-1.022,-1.293l-0.837,0l0,1.039c0,0.293 -0.227,0.523 -0.521,0.523c-0.297,0 -0.531,-0.232 -0.531,-0.523l0,-3.758l-0.002,0Zm2.114,1.79c0.512,0 0.794,-0.267 0.794,-0.674l0,-0.017c0,-0.444 -0.302,-0.683 -0.812,-0.683l-1.048,0l0,1.372l1.066,0l0,0.002Z" style="fill:#696566;fill-rule:nonzero;"/></g></svg>